<?xml version="1.0" encoding="utf-8"?>
<!-- Generator: Adobe Illustrator 27.1.1, SVG Export Plug-In . SVG Version: 6.00 Build 0)  -->
<svg version="1.1" id="Ebene_1" xmlns="http://www.w3.org/2000/svg" xmlns:xlink="http://www.w3.org/1999/xlink" x="0px" y="0px"
	 viewBox="0 0 277 73.8" style="enable-background:new 0 0 277 73.8;" xml:space="preserve">
<style type="text/css">
	.st0{fill:#FF0000;}
	.st1{fill:#FFCC00;}
</style>
<g id="Name" transform="scale(1,-1) translate(0,-104)">
	<path d="M53.8,100.3c0-0.3,0-0.6-0.1-0.9c-0.1-0.3-0.2-0.5-0.3-0.7c-0.1-0.2-0.3-0.3-0.5-0.4c-0.2-0.1-0.4-0.2-0.6-0.3v0
		c0.3,0,0.5-0.1,0.7-0.3c0.2-0.1,0.4-0.3,0.6-0.5c0.2-0.2,0.3-0.4,0.4-0.7c0.1-0.3,0.1-0.6,0.1-0.9c0-0.4-0.1-0.7-0.2-1.1
		c-0.1-0.3-0.3-0.6-0.6-0.8c-0.3-0.2-0.6-0.4-1.1-0.6S51.3,93,50.7,93h-2v9.8h1.9c0.6,0,1.1-0.1,1.5-0.2c0.4-0.1,0.8-0.3,1-0.5
		c0.3-0.2,0.5-0.5,0.6-0.8C53.8,101,53.8,100.7,53.8,100.3z M52.6,100.2c0,0.5-0.2,0.8-0.5,1.1c-0.3,0.3-0.8,0.4-1.5,0.4h-0.7v-3.4
		h0.6c0.7,0,1.2,0.2,1.5,0.5C52.4,99.2,52.6,99.7,52.6,100.2z M52.8,95.7c0,0.5-0.2,1-0.5,1.3c-0.3,0.3-0.8,0.5-1.5,0.5h-0.8V94h0.8
		c0.7,0,1.3,0.1,1.6,0.4C52.6,94.7,52.8,95.1,52.8,95.7z M60.4,93h-1.1v0.8h0c0-0.1-0.1-0.1-0.2-0.2c-0.1-0.1-0.2-0.2-0.4-0.3
		c-0.1-0.1-0.3-0.2-0.5-0.3c-0.2-0.1-0.4-0.1-0.7-0.1c-0.3,0-0.6,0-0.8,0.1c-0.2,0.1-0.4,0.2-0.6,0.4c-0.2,0.2-0.3,0.5-0.4,0.8
		c-0.1,0.3-0.1,0.7-0.1,1.2v4.5h1.2v-4.4c0-0.6,0.1-1,0.3-1.2c0.2-0.2,0.5-0.4,0.9-0.4c0.3,0,0.6,0.1,0.8,0.2
		c0.2,0.2,0.4,0.3,0.5,0.5v5.2h1.2C60.4,99.8,60.4,93,60.4,93z M65.9,93v4.4c0,0.6-0.1,1-0.3,1.2c-0.2,0.3-0.5,0.4-0.9,0.4
		c-0.3,0-0.6-0.1-0.9-0.3s-0.4-0.3-0.5-0.5V93h-1.2v6.8h1.1V99h0c0,0.1,0.1,0.1,0.2,0.2c0.1,0.1,0.2,0.2,0.4,0.3
		c0.2,0.1,0.3,0.2,0.5,0.3c0.2,0.1,0.4,0.1,0.7,0.1c0.3,0,0.6,0,0.8-0.1c0.2-0.1,0.5-0.2,0.6-0.4c0.2-0.2,0.3-0.5,0.4-0.8
		c0.1-0.3,0.1-0.7,0.1-1.2V93L65.9,93L65.9,93z M68.4,96.3c0,0.7,0.1,1.3,0.3,1.7c0.2,0.5,0.4,0.8,0.7,1.1c0.3,0.3,0.6,0.5,1,0.6
		c0.4,0.1,0.7,0.2,1.1,0.2c0.2,0,0.4,0,0.6,0c0.2,0,0.3-0.1,0.4-0.1v3.3l1.2,0.1V93h-1.1v0.7h0c0-0.1-0.1-0.1-0.2-0.2
		c-0.1-0.1-0.2-0.2-0.3-0.3c-0.1-0.1-0.3-0.2-0.5-0.3c-0.2-0.1-0.4-0.1-0.7-0.1c-0.3,0-0.6,0.1-0.9,0.2c-0.3,0.1-0.5,0.3-0.8,0.6
		c-0.2,0.3-0.4,0.6-0.5,1.1C68.5,95.1,68.4,95.7,68.4,96.3L68.4,96.3z M71.2,93.8c0.2,0,0.3,0,0.5,0.1c0.1,0,0.3,0.1,0.4,0.2
		s0.2,0.1,0.3,0.2s0.1,0.1,0.2,0.2v4.2c-0.1,0.1-0.2,0.1-0.4,0.2c-0.1,0-0.3,0.1-0.5,0.1c-0.3,0-0.5,0-0.7-0.1
		c-0.2-0.1-0.4-0.2-0.6-0.4c-0.2-0.2-0.3-0.5-0.4-0.8c-0.1-0.3-0.1-0.7-0.1-1.2c0-0.5,0-0.9,0.1-1.2c0.1-0.3,0.2-0.6,0.3-0.8
		c0.1-0.2,0.3-0.3,0.5-0.4S71,93.8,71.2,93.8L71.2,93.8z M79.7,97.5c0-0.3,0-0.5,0-0.8c0-0.2,0-0.4-0.1-0.6h-3.5
		c0-0.8,0.2-1.4,0.5-1.8c0.3-0.4,0.8-0.6,1.3-0.6c0.2,0,0.4,0,0.5,0.1c0.2,0,0.3,0.1,0.4,0.2c0.1,0.1,0.2,0.1,0.3,0.2
		c0.1,0.1,0.1,0.1,0.2,0.2l0.4-0.8c0,0-0.1-0.1-0.2-0.2c-0.1-0.1-0.2-0.2-0.4-0.3c-0.2-0.1-0.4-0.2-0.6-0.2
		c-0.2-0.1-0.5-0.1-0.8-0.1c-0.4,0-0.8,0.1-1.2,0.2c-0.3,0.1-0.6,0.4-0.9,0.7c-0.2,0.3-0.4,0.7-0.6,1.1c-0.1,0.5-0.2,1-0.2,1.7
		c0,0.6,0.1,1.1,0.2,1.6c0.1,0.4,0.3,0.8,0.6,1.1c0.2,0.3,0.5,0.5,0.8,0.6c0.3,0.1,0.7,0.2,1,0.2c0.7,0,1.2-0.2,1.5-0.6
		C79.5,98.9,79.7,98.3,79.7,97.5L79.7,97.5z M77.6,99c-0.4,0-0.7-0.2-1-0.5c-0.2-0.3-0.4-0.8-0.4-1.5h2.5c0,0,0,0.1,0,0.2
		c0,0.1,0,0.2,0,0.3c0,0.5-0.1,0.8-0.3,1.1C78.2,98.9,77.9,99,77.6,99z M84.2,98.4c-0.1,0.1-0.2,0.2-0.4,0.3
		C83.6,98.9,83.3,99,83,99c-0.3,0-0.5-0.1-0.7-0.2c-0.2-0.1-0.2-0.3-0.2-0.5c0-0.3,0.1-0.5,0.2-0.6c0.1-0.2,0.4-0.3,0.7-0.5l0.4-0.3
		c0.5-0.3,0.8-0.6,1.1-0.9c0.3-0.3,0.4-0.7,0.4-1.2c0-0.5-0.2-1-0.6-1.4c-0.4-0.4-0.9-0.6-1.6-0.6c-0.3,0-0.5,0-0.7,0.1
		c-0.2,0.1-0.4,0.1-0.5,0.2c-0.2,0.1-0.3,0.2-0.4,0.2c-0.1,0.1-0.2,0.2-0.3,0.2l0.6,0.9c0.1-0.1,0.1-0.1,0.2-0.2
		c0.1-0.1,0.2-0.1,0.3-0.2c0.1-0.1,0.2-0.1,0.4-0.2c0.1,0,0.3-0.1,0.5-0.1c0.3,0,0.6,0.1,0.8,0.2s0.3,0.3,0.3,0.6
		c0,0.2,0,0.3-0.1,0.4c0,0.1-0.1,0.2-0.2,0.3s-0.2,0.2-0.3,0.3s-0.3,0.2-0.4,0.3l-0.4,0.3c-0.4,0.3-0.8,0.6-1,0.9
		c-0.2,0.3-0.4,0.7-0.4,1.2c0,0.3,0,0.5,0.1,0.7c0.1,0.2,0.2,0.4,0.4,0.6c0.2,0.2,0.4,0.3,0.6,0.4c0.2,0.1,0.5,0.1,0.8,0.1
		c0.3,0,0.5,0,0.7-0.1c0.2-0.1,0.4-0.1,0.5-0.2c0.1-0.1,0.3-0.2,0.3-0.2c0.1-0.1,0.2-0.1,0.2-0.2L84.2,98.4L84.2,98.4z M89.8,93v4.4
		c0,0.6-0.1,1-0.2,1.2s-0.4,0.4-0.8,0.4c-0.2,0-0.4,0-0.5-0.1c-0.1,0-0.3-0.1-0.4-0.2c-0.1-0.1-0.2-0.1-0.3-0.2s-0.2-0.2-0.2-0.2V93
		h-1.2v6.8h1.1V99h0c0,0.1,0.1,0.2,0.2,0.3c0.1,0.1,0.2,0.2,0.4,0.3c0.1,0.1,0.3,0.2,0.5,0.2c0.2,0.1,0.4,0.1,0.6,0.1
		c0.8,0,1.3-0.3,1.7-0.9c0.1,0.1,0.2,0.2,0.3,0.3c0.1,0.1,0.2,0.2,0.4,0.3c0.2,0.1,0.3,0.2,0.5,0.2c0.2,0.1,0.4,0.1,0.6,0.1
		c1.4,0,2.1-0.8,2.1-2.4V93h-1.2v4.4c0,0.6-0.1,1-0.3,1.2s-0.5,0.4-0.9,0.4c-0.3,0-0.6-0.1-0.8-0.2c-0.2-0.2-0.4-0.3-0.5-0.4
		c0-0.1,0-0.2,0-0.3c0-0.1,0-0.2,0-0.4V93C91,93,89.8,93,89.8,93z M97.5,93h-1.2v6.8h1.2V93z M96.9,101.4c-0.2,0-0.4,0.1-0.6,0.2
		c-0.1,0.2-0.2,0.4-0.2,0.6c0,0.2,0.1,0.4,0.2,0.6c0.1,0.2,0.3,0.2,0.6,0.2c0.2,0,0.4-0.1,0.6-0.2c0.1-0.2,0.2-0.3,0.2-0.6
		c0-0.2-0.1-0.4-0.2-0.6C97.3,101.5,97.1,101.4,96.9,101.4z M102.9,93v4.4c0,0.6-0.1,1-0.3,1.2c-0.2,0.3-0.5,0.4-0.9,0.4
		c-0.3,0-0.6-0.1-0.9-0.3c-0.2-0.2-0.4-0.3-0.5-0.5V93h-1.2v6.8h1.1V99h0c0,0.1,0.1,0.1,0.2,0.2c0.1,0.1,0.2,0.2,0.4,0.3
		s0.3,0.2,0.5,0.3c0.2,0.1,0.4,0.1,0.7,0.1c0.3,0,0.6,0,0.8-0.1c0.2-0.1,0.5-0.2,0.6-0.4c0.2-0.2,0.3-0.5,0.4-0.8
		c0.1-0.3,0.1-0.7,0.1-1.2V93L102.9,93L102.9,93z M107,93h-1.2v6.8h1.2V93z M106.4,101.4c-0.2,0-0.4,0.1-0.6,0.2
		c-0.1,0.2-0.2,0.4-0.2,0.6c0,0.2,0.1,0.4,0.2,0.6c0.1,0.2,0.3,0.2,0.6,0.2c0.2,0,0.4-0.1,0.6-0.2c0.1-0.2,0.2-0.3,0.2-0.6
		c0-0.2-0.1-0.4-0.2-0.6C106.8,101.5,106.6,101.4,106.4,101.4z M111.7,98.4c-0.1,0.1-0.2,0.2-0.4,0.3c-0.2,0.1-0.5,0.2-0.8,0.2
		c-0.3,0-0.5-0.1-0.7-0.2c-0.2-0.1-0.2-0.3-0.2-0.5c0-0.3,0.1-0.5,0.2-0.6c0.1-0.2,0.4-0.3,0.7-0.5l0.4-0.3c0.5-0.3,0.8-0.6,1.1-0.9
		c0.3-0.3,0.4-0.7,0.4-1.2c0-0.5-0.2-1-0.6-1.4c-0.4-0.4-0.9-0.6-1.6-0.6c-0.3,0-0.5,0-0.7,0.1s-0.4,0.1-0.5,0.2
		c-0.2,0.1-0.3,0.2-0.4,0.2c-0.1,0.1-0.2,0.2-0.3,0.2l0.6,0.9c0.1-0.1,0.1-0.1,0.2-0.2c0.1-0.1,0.2-0.1,0.3-0.2
		c0.1-0.1,0.2-0.1,0.4-0.2c0.1,0,0.3-0.1,0.5-0.1c0.3,0,0.6,0.1,0.8,0.2c0.2,0.2,0.3,0.3,0.3,0.6c0,0.2,0,0.3-0.1,0.4
		c0,0.1-0.1,0.2-0.2,0.3c-0.1,0.1-0.2,0.2-0.3,0.3s-0.3,0.2-0.4,0.3l-0.4,0.3c-0.4,0.3-0.8,0.6-1,0.9c-0.2,0.3-0.4,0.7-0.4,1.2
		c0,0.3,0,0.5,0.1,0.7c0.1,0.2,0.2,0.4,0.4,0.6c0.2,0.2,0.4,0.3,0.6,0.4c0.2,0.1,0.5,0.1,0.8,0.1c0.3,0,0.5,0,0.7-0.1
		c0.2-0.1,0.4-0.1,0.5-0.2c0.1-0.1,0.3-0.2,0.3-0.2c0.1-0.1,0.2-0.1,0.2-0.2L111.7,98.4L111.7,98.4z M116.6,98.9h-1.5v-3.8
		c0-0.5,0.1-0.8,0.2-1c0.1-0.2,0.3-0.3,0.6-0.3c0.2,0,0.3,0,0.4,0.1c0.1,0,0.2,0.1,0.3,0.1l0.2-0.9c0,0-0.2-0.1-0.3-0.2
		c-0.2-0.1-0.4-0.1-0.7-0.1c-0.6,0-1,0.2-1.3,0.5c-0.3,0.3-0.4,0.9-0.4,1.6v3.9h-0.8v0.8l0.8,0.2l0.1,1.9h1v-1.9h1.6
		C116.8,99.8,116.6,98.9,116.6,98.9z M122.2,97.5c0-0.3,0-0.5,0-0.8c0-0.2,0-0.4-0.1-0.6h-3.5c0-0.8,0.2-1.4,0.5-1.8
		c0.3-0.4,0.8-0.6,1.3-0.6c0.2,0,0.4,0,0.5,0.1c0.2,0,0.3,0.1,0.4,0.2c0.1,0.1,0.2,0.1,0.3,0.2c0.1,0.1,0.1,0.1,0.2,0.2l0.4-0.8
		c0,0-0.1-0.1-0.2-0.2c-0.1-0.1-0.2-0.2-0.4-0.3c-0.2-0.1-0.4-0.2-0.6-0.2c-0.2-0.1-0.5-0.1-0.8-0.1c-0.4,0-0.8,0.1-1.2,0.2
		c-0.3,0.1-0.6,0.4-0.9,0.7c-0.2,0.3-0.4,0.7-0.6,1.1c-0.1,0.5-0.2,1-0.2,1.7c0,0.6,0.1,1.1,0.2,1.6c0.1,0.4,0.3,0.8,0.6,1.1
		c0.2,0.3,0.5,0.5,0.8,0.6c0.3,0.1,0.7,0.2,1,0.2c0.7,0,1.2-0.2,1.5-0.6C122.1,98.9,122.2,98.3,122.2,97.5L122.2,97.5z M120.1,99
		c-0.4,0-0.7-0.2-1-0.5c-0.2-0.3-0.4-0.8-0.4-1.5h2.5c0,0,0,0.1,0,0.2c0,0.1,0,0.2,0,0.3c0,0.5-0.1,0.8-0.3,1.1
		C120.7,98.9,120.4,99,120.1,99z M126.8,98.8c0,0-0.1,0-0.2,0.1c-0.1,0-0.2,0-0.4,0c-0.4,0-0.6-0.1-0.8-0.3
		c-0.2-0.2-0.3-0.4-0.4-0.6v-5h-1.2v6.8h1.1v-0.9h0c0,0.1,0.1,0.3,0.2,0.4c0.1,0.1,0.2,0.2,0.3,0.3c0.1,0.1,0.2,0.2,0.4,0.2
		c0.2,0.1,0.3,0.1,0.6,0.1c0.2,0,0.3,0,0.4,0c0.1,0,0.2-0.1,0.2-0.1L126.8,98.8L126.8,98.8z M129.1,93h-1.2v6.8h1.2V93z
		 M128.5,101.4c-0.2,0-0.4,0.1-0.6,0.2c-0.1,0.2-0.2,0.4-0.2,0.6c0,0.2,0.1,0.4,0.2,0.6c0.1,0.2,0.3,0.2,0.6,0.2
		c0.2,0,0.4-0.1,0.6-0.2c0.1-0.2,0.2-0.3,0.2-0.6c0-0.2-0.1-0.4-0.2-0.6C128.9,101.5,128.7,101.4,128.5,101.4z M135.6,93h-1.1v0.8h0
		c0-0.1-0.1-0.1-0.2-0.2c-0.1-0.1-0.2-0.2-0.4-0.3c-0.1-0.1-0.3-0.2-0.5-0.3c-0.2-0.1-0.4-0.1-0.7-0.1c-0.3,0-0.6,0-0.8,0.1
		c-0.2,0.1-0.4,0.2-0.6,0.4c-0.2,0.2-0.3,0.5-0.4,0.8c-0.1,0.3-0.1,0.7-0.1,1.2v4.5h1.2v-4.4c0-0.6,0.1-1,0.3-1.2
		c0.2-0.2,0.5-0.4,0.9-0.4c0.3,0,0.6,0.1,0.8,0.2c0.2,0.2,0.4,0.3,0.5,0.5v5.2h1.2L135.6,93L135.6,93z M141,93v4.4
		c0,0.6-0.1,1-0.2,1.2c-0.2,0.2-0.4,0.4-0.8,0.4c-0.2,0-0.4,0-0.5-0.1c-0.1,0-0.3-0.1-0.4-0.2c-0.1-0.1-0.2-0.1-0.3-0.2
		s-0.2-0.2-0.2-0.2V93h-1.2v6.8h1.1V99h0c0,0.1,0.1,0.2,0.2,0.3c0.1,0.1,0.2,0.2,0.4,0.3s0.3,0.2,0.5,0.2c0.2,0.1,0.4,0.1,0.6,0.1
		c0.8,0,1.3-0.3,1.7-0.9c0.1,0.1,0.2,0.2,0.3,0.3c0.1,0.1,0.2,0.2,0.4,0.3c0.2,0.1,0.3,0.2,0.5,0.2s0.4,0.1,0.6,0.1
		c1.4,0,2.1-0.8,2.1-2.4V93h-1.2v4.4c0,0.6-0.1,1-0.3,1.2s-0.5,0.4-0.9,0.4c-0.3,0-0.6-0.1-0.8-0.2c-0.2-0.2-0.4-0.3-0.5-0.4
		c0-0.1,0-0.2,0-0.3c0-0.1,0-0.2,0-0.4V93H141L141,93z M51.3,84.5h-1.4v-5.9h-1.2v5.9h-0.8v0.8l0.8,0.2v1.4c0,0.4,0.1,0.7,0.2,1
		c0.1,0.3,0.2,0.5,0.4,0.7c0.2,0.2,0.4,0.3,0.6,0.4c0.2,0.1,0.5,0.1,0.7,0.1c0.2,0,0.5,0,0.6-0.1c0.2-0.1,0.3-0.1,0.3-0.2l-0.2-1
		c-0.1,0-0.1,0.1-0.2,0.1c-0.1,0-0.2,0.1-0.4,0.1c-0.3,0-0.5-0.1-0.6-0.3c-0.1-0.2-0.2-0.5-0.2-0.9v-1.2h1.5
		C51.5,85.4,51.3,84.5,51.3,84.5z M57.2,78.6h-1.1v0.8h0c0-0.1-0.1-0.1-0.2-0.2c-0.1-0.1-0.2-0.2-0.4-0.3c-0.1-0.1-0.3-0.2-0.5-0.3
		s-0.4-0.1-0.7-0.1c-0.3,0-0.6,0-0.8,0.1c-0.2,0.1-0.4,0.2-0.6,0.4s-0.3,0.5-0.4,0.8c-0.1,0.3-0.1,0.7-0.1,1.2v4.5h1.2V81
		c0-0.6,0.1-1,0.3-1.2c0.2-0.2,0.5-0.4,0.9-0.4c0.3,0,0.6,0.1,0.8,0.2c0.2,0.2,0.4,0.3,0.5,0.5v5.2h1.2
		C57.2,85.4,57.2,78.6,57.2,78.6z M54.4,87.4c0-0.2-0.1-0.4-0.2-0.5c-0.1-0.1-0.3-0.2-0.5-0.2s-0.4,0.1-0.5,0.2S53,87.2,53,87.4
		s0.1,0.4,0.2,0.5c0.1,0.1,0.3,0.2,0.5,0.2s0.4-0.1,0.5-0.2S54.4,87.6,54.4,87.4z M56.6,87.4c0-0.2-0.1-0.4-0.2-0.5
		c-0.1-0.1-0.3-0.2-0.5-0.2c-0.2,0-0.4,0.1-0.5,0.2s-0.2,0.3-0.2,0.5s0.1,0.4,0.2,0.5c0.1,0.1,0.3,0.2,0.5,0.2
		c0.2,0,0.4-0.1,0.5-0.2C56.5,87.8,56.6,87.6,56.6,87.4z M62,84.4c0,0-0.1,0-0.2,0.1s-0.2,0-0.4,0c-0.4,0-0.6-0.1-0.8-0.3
		c-0.2-0.2-0.3-0.4-0.4-0.6v-5H59v6.8H60v-0.9h0c0,0.1,0.1,0.3,0.2,0.4c0.1,0.1,0.2,0.2,0.3,0.3c0.1,0.1,0.2,0.2,0.4,0.2
		c0.2,0.1,0.3,0.1,0.6,0.1c0.2,0,0.3,0,0.4,0c0.1,0,0.2-0.1,0.2-0.1C62.1,85.5,62,84.4,62,84.4z M72.4,82.4c0-1.3-0.3-2.3-0.8-3
		c-0.5-0.7-1.4-1-2.4-1c-1.1,0-1.9,0.3-2.4,0.9C66.2,80,66,81,66,82.4v6h1.2v-6c0-1,0.2-1.7,0.5-2.2c0.3-0.5,0.8-0.7,1.5-0.7
		c0.7,0,1.2,0.2,1.5,0.7c0.3,0.5,0.5,1.2,0.5,2.2v6h1.2L72.4,82.4L72.4,82.4z M77.9,78.6V83c0,0.6-0.1,1-0.2,1.2
		c-0.2,0.2-0.4,0.4-0.8,0.4c-0.2,0-0.4,0-0.5-0.1c-0.1,0-0.3-0.1-0.4-0.2c-0.1-0.1-0.2-0.1-0.3-0.2s-0.2-0.2-0.2-0.2v-5.3h-1.2v6.8
		h1.1v-0.8h0c0,0.1,0.1,0.2,0.2,0.3c0.1,0.1,0.2,0.2,0.4,0.3s0.3,0.2,0.5,0.2c0.2,0.1,0.4,0.1,0.6,0.1c0.8,0,1.3-0.3,1.7-0.9
		c0.1,0.1,0.2,0.2,0.3,0.3c0.1,0.1,0.2,0.2,0.4,0.3c0.2,0.1,0.3,0.2,0.5,0.2c0.2,0.1,0.4,0.1,0.6,0.1c1.4,0,2.1-0.8,2.1-2.4v-4.6
		h-1.2V83c0,0.6-0.1,1-0.3,1.2c-0.2,0.2-0.5,0.4-0.9,0.4c-0.3,0-0.6-0.1-0.8-0.2c-0.2-0.2-0.4-0.3-0.5-0.4c0-0.1,0-0.2,0-0.3
		c0-0.1,0-0.2,0-0.4v-4.6C79,78.6,77.9,78.6,77.9,78.6z M92.2,85.4l-2.1-6.8h-1L88.4,81c-0.1,0.3-0.2,0.7-0.3,1
		C88,82.2,88,82.5,88,82.8h0c0-0.3-0.1-0.6-0.2-0.9c-0.1-0.3-0.2-0.6-0.3-1l-0.8-2.4h-1l-2.1,6.8h1.2l1-3.9c0.1-0.4,0.2-0.7,0.2-1
		c0.1-0.3,0.1-0.6,0.1-0.9h0c0,0.3,0.1,0.6,0.2,0.9c0.1,0.3,0.2,0.6,0.3,1l0.7,2.2l-0.5,1.7h1.2l1-3.8c0.1-0.4,0.2-0.8,0.3-1.1
		c0.1-0.3,0.1-0.6,0.1-0.9h0c0,0.2,0.1,0.5,0.1,0.9c0.1,0.3,0.2,0.7,0.3,1.1l1,3.8C91.1,85.4,92.2,85.4,92.2,85.4z M97.5,83.1
		c0-0.3,0-0.5,0-0.8c0-0.2,0-0.4-0.1-0.6h-3.5c0-0.8,0.2-1.4,0.5-1.8c0.3-0.4,0.8-0.6,1.3-0.6c0.2,0,0.4,0,0.5,0.1
		c0.2,0,0.3,0.1,0.4,0.2c0.1,0.1,0.2,0.1,0.3,0.2c0.1,0.1,0.1,0.1,0.2,0.2l0.4-0.8c0,0-0.1-0.1-0.2-0.2c-0.1-0.1-0.2-0.2-0.4-0.3
		c-0.2-0.1-0.4-0.2-0.6-0.2c-0.2-0.1-0.5-0.1-0.8-0.1c-0.4,0-0.8,0.1-1.2,0.2c-0.3,0.1-0.6,0.4-0.9,0.7c-0.2,0.3-0.4,0.7-0.6,1.1
		c-0.1,0.5-0.2,1-0.2,1.7c0,0.6,0.1,1.1,0.2,1.6c0.1,0.4,0.3,0.8,0.6,1.1c0.2,0.3,0.5,0.5,0.8,0.6c0.3,0.1,0.7,0.2,1,0.2
		c0.7,0,1.2-0.2,1.5-0.6C97.3,84.6,97.5,84,97.5,83.1z M95.3,84.7c-0.4,0-0.7-0.2-1-0.5c-0.2-0.3-0.4-0.8-0.4-1.5h2.5
		c0,0,0,0.1,0,0.2c0,0.1,0,0.2,0,0.3c0,0.5-0.1,0.8-0.3,1.1C96,84.5,95.7,84.7,95.3,84.7z M100.2,80.2c0-0.3,0-0.5,0.1-0.6
		c0.1-0.1,0.2-0.2,0.4-0.2c0.1,0,0.2,0,0.3,0s0.1,0,0.2,0.1l0.1-0.9c-0.1,0-0.2-0.1-0.3-0.1c-0.2,0-0.4-0.1-0.6-0.1
		c-0.4,0-0.7,0.1-0.9,0.4S99,79.5,99,80.1v8.6l1.2,0.1L100.2,80.2L100.2,80.2z M105.2,84.5h-1.5v-3.8c0-0.5,0.1-0.8,0.2-1
		c0.1-0.2,0.3-0.3,0.6-0.3c0.2,0,0.3,0,0.4,0.1s0.2,0.1,0.3,0.1l0.2-0.9c0,0-0.2-0.1-0.3-0.2c-0.2-0.1-0.4-0.1-0.7-0.1
		c-0.6,0-1,0.2-1.3,0.5c-0.3,0.3-0.4,0.9-0.4,1.6v3.9h-0.8v0.8l0.8,0.2l0.1,1.9h1v-1.9h1.6C105.4,85.4,105.2,84.5,105.2,84.5z
		 M106.3,79.4c0,0.3,0.1,0.4,0.2,0.6c0.1,0.1,0.3,0.2,0.5,0.2c0.3,0,0.5-0.1,0.7-0.3c0.2-0.2,0.3-0.6,0.3-1.1c0-0.3,0-0.6-0.1-0.8
		c-0.1-0.2-0.2-0.5-0.4-0.6c-0.2-0.2-0.3-0.3-0.5-0.4c-0.2-0.1-0.4-0.2-0.6-0.3l-0.2,0.5c0.3,0.2,0.5,0.3,0.7,0.5
		c0.2,0.2,0.3,0.5,0.3,0.9h0c-0.2,0-0.4,0.1-0.6,0.2C106.4,79,106.3,79.2,106.3,79.4z M119,88.4v-9.8h-1.1l-3.3,5.9
		c-0.2,0.4-0.4,0.7-0.6,1c-0.2,0.3-0.3,0.6-0.3,0.8h0c0-0.2,0.1-0.5,0.1-0.9c0-0.4,0-0.8,0-1.2v-5.7h-1.2v9.8h1.1l3.3-5.8
		c0.2-0.4,0.4-0.7,0.6-1c0.2-0.3,0.3-0.6,0.3-0.8h0c0,0.2-0.1,0.5-0.1,0.9c0,0.4,0,0.8,0,1.2v5.6C117.8,88.4,119,88.4,119,88.4z
		 M120.6,80.3c0,0.4,0.1,0.7,0.2,1c0.2,0.3,0.4,0.5,0.6,0.6c0.3,0.2,0.6,0.3,0.9,0.4c0.3,0.1,0.7,0.1,1.1,0.1h0.4v0.7
		c0,0.6-0.1,1-0.3,1.2c-0.2,0.2-0.5,0.3-0.9,0.3c-0.3,0-0.6-0.1-0.9-0.2c-0.2-0.1-0.4-0.3-0.5-0.4l-0.5,0.8c0.1,0.1,0.2,0.2,0.3,0.3
		c0.1,0.1,0.3,0.2,0.4,0.3c0.2,0.1,0.4,0.2,0.6,0.2c0.2,0.1,0.5,0.1,0.7,0.1c0.7,0,1.2-0.2,1.6-0.6c0.4-0.4,0.5-1,0.5-1.9V80
		c0-0.3,0-0.6,0-0.9c0-0.3,0-0.5,0.1-0.6h-1.1l0,0.8h0c0-0.1-0.1-0.2-0.2-0.3c-0.1-0.1-0.2-0.2-0.3-0.3c-0.1-0.1-0.3-0.2-0.4-0.2
		c-0.2-0.1-0.4-0.1-0.6-0.1c-0.3,0-0.5,0-0.7,0.1c-0.2,0.1-0.4,0.2-0.6,0.4c-0.2,0.2-0.3,0.4-0.4,0.6
		C120.6,79.8,120.6,80.1,120.6,80.3L120.6,80.3z M122.7,79.4c0.2,0,0.3,0,0.4,0.1s0.2,0.1,0.3,0.2c0.1,0.1,0.2,0.1,0.2,0.2
		c0.1,0.1,0.1,0.1,0.2,0.2v1.5l-0.4,0c-0.6,0-1-0.1-1.3-0.3c-0.3-0.2-0.4-0.4-0.4-0.8c0-0.4,0.1-0.6,0.2-0.8
		C122.2,79.5,122.4,79.4,122.7,79.4z M129.6,84.5h-1.5v-3.8c0-0.5,0.1-0.8,0.2-1c0.1-0.2,0.3-0.3,0.6-0.3c0.2,0,0.3,0,0.4,0.1
		c0.1,0,0.2,0.1,0.3,0.1l0.2-0.9c0,0-0.2-0.1-0.3-0.2c-0.2-0.1-0.4-0.1-0.7-0.1c-0.6,0-1,0.2-1.3,0.5c-0.3,0.3-0.4,0.9-0.4,1.6v3.9
		h-0.8v0.8l0.8,0.2l0.1,1.9h1v-1.9h1.6L129.6,84.5z M135.7,78.6h-1.1v0.8h0c0-0.1-0.1-0.1-0.2-0.2c-0.1-0.1-0.2-0.2-0.4-0.3
		c-0.1-0.1-0.3-0.2-0.5-0.3s-0.4-0.1-0.7-0.1c-0.3,0-0.6,0-0.8,0.1c-0.2,0.1-0.4,0.2-0.6,0.4s-0.3,0.5-0.4,0.8
		c-0.1,0.3-0.1,0.7-0.1,1.2v4.5h1.2V81c0-0.6,0.1-1,0.3-1.2c0.2-0.2,0.5-0.4,0.9-0.4c0.3,0,0.6,0.1,0.8,0.2c0.2,0.2,0.4,0.3,0.5,0.5
		v5.2h1.2L135.7,78.6L135.7,78.6z M140.5,84.4c0,0-0.1,0-0.2,0.1c-0.1,0-0.2,0-0.4,0c-0.4,0-0.6-0.1-0.8-0.3
		c-0.2-0.2-0.3-0.4-0.4-0.6v-5h-1.2v6.8h1.1v-0.9h0c0,0.1,0.1,0.3,0.2,0.4c0.1,0.1,0.2,0.2,0.3,0.3c0.1,0.1,0.2,0.2,0.4,0.2
		c0.2,0.1,0.3,0.1,0.6,0.1c0.2,0,0.3,0,0.4,0s0.2-0.1,0.2-0.1C140.6,85.5,140.5,84.4,140.5,84.4z M144.5,84.1
		c-0.1,0.1-0.2,0.2-0.4,0.3c-0.2,0.1-0.5,0.2-0.8,0.2c-0.3,0-0.5-0.1-0.7-0.2c-0.2-0.1-0.2-0.3-0.2-0.5c0-0.3,0.1-0.5,0.2-0.6
		c0.1-0.2,0.4-0.3,0.7-0.5l0.4-0.3c0.5-0.3,0.8-0.6,1.1-0.9c0.3-0.3,0.4-0.7,0.4-1.2c0-0.5-0.2-1-0.6-1.4c-0.4-0.4-0.9-0.6-1.6-0.6
		c-0.3,0-0.5,0-0.7,0.1c-0.2,0.1-0.4,0.1-0.5,0.2c-0.2,0.1-0.3,0.2-0.4,0.2c-0.1,0.1-0.2,0.2-0.3,0.2l0.6,0.9
		c0.1-0.1,0.1-0.1,0.2-0.2c0.1-0.1,0.2-0.1,0.3-0.2c0.1-0.1,0.2-0.1,0.4-0.2s0.3-0.1,0.5-0.1c0.3,0,0.6,0.1,0.8,0.2s0.3,0.3,0.3,0.6
		c0,0.2,0,0.3-0.1,0.4c0,0.1-0.1,0.2-0.2,0.3s-0.2,0.2-0.3,0.3c-0.1,0.1-0.3,0.2-0.4,0.3l-0.4,0.3c-0.4,0.3-0.8,0.6-1,0.9
		c-0.2,0.3-0.4,0.7-0.4,1.2c0,0.3,0,0.5,0.1,0.7c0.1,0.2,0.2,0.4,0.4,0.6c0.2,0.2,0.4,0.3,0.6,0.4c0.2,0.1,0.5,0.1,0.8,0.1
		c0.3,0,0.5,0,0.7-0.1c0.2-0.1,0.4-0.1,0.5-0.2c0.1-0.1,0.3-0.2,0.3-0.2c0.1-0.1,0.2-0.1,0.2-0.2L144.5,84.1L144.5,84.1z
		 M150.3,84.1c0,0-0.1,0.1-0.1,0.1c-0.1,0.1-0.1,0.1-0.2,0.2c-0.1,0.1-0.2,0.1-0.3,0.1c-0.1,0-0.3,0.1-0.5,0.1c-0.2,0-0.5,0-0.7-0.1
		c-0.2-0.1-0.4-0.2-0.6-0.4c-0.2-0.2-0.3-0.5-0.4-0.8c-0.1-0.3-0.1-0.7-0.1-1.2c0-0.5,0-0.9,0.1-1.3c0.1-0.3,0.2-0.6,0.3-0.8
		c0.1-0.2,0.3-0.4,0.5-0.4c0.2-0.1,0.4-0.1,0.7-0.1c0.4,0,0.6,0.1,0.8,0.2c0.2,0.1,0.3,0.2,0.4,0.3l0.5-0.8c0-0.1-0.1-0.1-0.2-0.2
		c-0.1-0.1-0.2-0.2-0.3-0.2s-0.3-0.1-0.5-0.2c-0.2-0.1-0.4-0.1-0.7-0.1c-0.4,0-0.7,0.1-1.1,0.2c-0.3,0.1-0.6,0.3-0.9,0.6
		c-0.2,0.3-0.4,0.7-0.6,1.1s-0.2,1-0.2,1.7c0,0.7,0.1,1.2,0.3,1.7c0.2,0.5,0.4,0.8,0.7,1.1c0.3,0.3,0.6,0.5,0.9,0.6
		c0.3,0.1,0.7,0.2,1,0.2c0.3,0,0.5,0,0.7-0.1c0.2,0,0.4-0.1,0.5-0.2c0.1-0.1,0.3-0.1,0.3-0.2c0.1-0.1,0.2-0.1,0.2-0.2L150.3,84.1
		L150.3,84.1z M155.7,78.6V83c0,0.6-0.1,1-0.3,1.2c-0.2,0.3-0.5,0.4-0.9,0.4c-0.3,0-0.6-0.1-0.9-0.3c-0.2-0.2-0.4-0.3-0.5-0.5v-5.3
		H152v10.1l1.2,0.1v-4.1h0c0,0.1,0.1,0.1,0.2,0.2c0.1,0.1,0.2,0.2,0.3,0.3s0.3,0.2,0.5,0.2c0.2,0.1,0.4,0.1,0.7,0.1
		c0.6,0,1.1-0.2,1.4-0.6c0.4-0.4,0.5-1,0.5-1.9v-4.5L155.7,78.6L155.7,78.6z M163.4,78.6h-1.1v0.8h0c0-0.1-0.1-0.1-0.2-0.2
		c-0.1-0.1-0.2-0.2-0.4-0.3c-0.1-0.1-0.3-0.2-0.5-0.3c-0.2-0.1-0.4-0.1-0.7-0.1c-0.3,0-0.6,0-0.8,0.1c-0.2,0.1-0.4,0.2-0.6,0.4
		c-0.2,0.2-0.3,0.5-0.4,0.8c-0.1,0.3-0.1,0.7-0.1,1.2v4.5h1.2V81c0-0.6,0.1-1,0.3-1.2c0.2-0.2,0.5-0.4,0.9-0.4
		c0.3,0,0.6,0.1,0.8,0.2c0.2,0.2,0.4,0.3,0.5,0.5v5.2h1.2L163.4,78.6L163.4,78.6z M168.1,84.5h-1.5v-3.8c0-0.5,0.1-0.8,0.2-1
		c0.1-0.2,0.3-0.3,0.6-0.3c0.2,0,0.3,0,0.4,0.1c0.1,0,0.2,0.1,0.3,0.1l0.2-0.9c0,0-0.2-0.1-0.3-0.2c-0.2-0.1-0.4-0.1-0.7-0.1
		c-0.6,0-1,0.2-1.3,0.5c-0.3,0.3-0.4,0.9-0.4,1.6v3.9h-0.8v0.8l0.8,0.2l0.1,1.9h1v-1.9h1.6L168.1,84.5z M173.2,84.7l-2.8-5.1v0h2.9
		l-0.1-1H169v0.7l2.8,5.1v0h-2.7v0.9h4.1L173.2,84.7L173.2,84.7z M174.5,79.4c0,0.3,0.1,0.4,0.2,0.6c0.1,0.1,0.3,0.2,0.5,0.2
		c0.3,0,0.5-0.1,0.7-0.3c0.2-0.2,0.3-0.6,0.3-1.1c0-0.3,0-0.6-0.1-0.8c-0.1-0.2-0.2-0.5-0.4-0.6c-0.2-0.2-0.3-0.3-0.5-0.4
		c-0.2-0.1-0.4-0.2-0.6-0.3l-0.2,0.5c0.3,0.2,0.5,0.3,0.7,0.5s0.3,0.5,0.3,0.9h0c-0.2,0-0.4,0.1-0.6,0.2
		C174.6,79,174.5,79.2,174.5,79.4L174.5,79.4z M184.1,78.6V83c0,0.6-0.1,1-0.3,1.2c-0.2,0.3-0.5,0.4-0.9,0.4c-0.3,0-0.6-0.1-0.9-0.3
		s-0.4-0.3-0.5-0.5v-5.3h-1.2v6.8h1.1v-0.8h0c0,0.1,0.1,0.1,0.2,0.2c0.1,0.1,0.2,0.2,0.4,0.3c0.2,0.1,0.3,0.2,0.5,0.3
		c0.2,0.1,0.4,0.1,0.7,0.1c0.3,0,0.6,0,0.8-0.1c0.2-0.1,0.5-0.2,0.6-0.4c0.2-0.2,0.3-0.5,0.4-0.8c0.1-0.3,0.1-0.7,0.1-1.2v-4.5
		H184.1L184.1,78.6z M191.8,78.6h-1.1v0.8h0c0-0.1-0.1-0.1-0.2-0.2c-0.1-0.1-0.2-0.2-0.4-0.3c-0.1-0.1-0.3-0.2-0.5-0.3
		c-0.2-0.1-0.4-0.1-0.7-0.1c-0.3,0-0.6,0-0.8,0.1c-0.2,0.1-0.4,0.2-0.6,0.4c-0.2,0.2-0.3,0.5-0.4,0.8c-0.1,0.3-0.1,0.7-0.1,1.2v4.5
		h1.2V81c0-0.6,0.1-1,0.3-1.2c0.2-0.2,0.5-0.4,0.9-0.4c0.3,0,0.6,0.1,0.8,0.2c0.2,0.2,0.4,0.3,0.5,0.5v5.2h1.2L191.8,78.6
		L191.8,78.6z M196.1,82.3l2.3-3.7h-1.4l-1.9,3.2h-0.5v-3.2h-1.2v10.1l1.2,0.1v-6h0.5l1.8,2.7h1.4L196.1,82.3L196.1,82.3z
		 M200.6,80.2c0-0.3,0-0.5,0.1-0.6c0.1-0.1,0.2-0.2,0.4-0.2c0.1,0,0.2,0,0.3,0c0.1,0,0.1,0,0.2,0.1l0.1-0.9c-0.1,0-0.2-0.1-0.3-0.1
		c-0.2,0-0.4-0.1-0.6-0.1c-0.4,0-0.7,0.1-0.9,0.4s-0.4,0.7-0.4,1.3v8.6l1.2,0.1L200.6,80.2L200.6,80.2z M207.1,83.1
		c0-0.3,0-0.5,0-0.8c0-0.2,0-0.4-0.1-0.6h-3.5c0-0.8,0.2-1.4,0.5-1.8c0.3-0.4,0.8-0.6,1.3-0.6c0.2,0,0.4,0,0.5,0.1s0.3,0.1,0.4,0.2
		c0.1,0.1,0.2,0.1,0.3,0.2c0.1,0.1,0.1,0.1,0.2,0.2l0.4-0.8c0,0-0.1-0.1-0.2-0.2c-0.1-0.1-0.2-0.2-0.4-0.3c-0.2-0.1-0.4-0.2-0.6-0.2
		c-0.2-0.1-0.5-0.1-0.8-0.1c-0.4,0-0.8,0.1-1.2,0.2c-0.3,0.1-0.6,0.4-0.9,0.7c-0.2,0.3-0.4,0.7-0.6,1.1c-0.1,0.5-0.2,1-0.2,1.7
		c0,0.6,0.1,1.1,0.2,1.6c0.1,0.4,0.3,0.8,0.6,1.1c0.2,0.3,0.5,0.5,0.8,0.6c0.3,0.1,0.6,0.2,1,0.2c0.7,0,1.2-0.2,1.5-0.6
		C206.9,84.6,207.1,84,207.1,83.1L207.1,83.1z M205,84.7c-0.4,0-0.7-0.2-1-0.5c-0.2-0.3-0.4-0.8-0.4-1.5h2.5c0,0,0,0.1,0,0.2
		c0,0.1,0,0.2,0,0.3c0,0.5-0.1,0.8-0.3,1.1C205.6,84.5,205.3,84.7,205,84.7z M208.3,80.3c0,0.4,0.1,0.7,0.2,1
		c0.2,0.3,0.4,0.5,0.6,0.6c0.3,0.2,0.6,0.3,0.9,0.4c0.3,0.1,0.7,0.1,1.1,0.1h0.4v0.7c0,0.6-0.1,1-0.3,1.2c-0.2,0.2-0.5,0.3-0.9,0.3
		c-0.3,0-0.6-0.1-0.9-0.2c-0.2-0.1-0.4-0.3-0.5-0.4l-0.5,0.8c0.1,0.1,0.2,0.2,0.3,0.3c0.1,0.1,0.3,0.2,0.4,0.3
		c0.2,0.1,0.4,0.2,0.6,0.2s0.5,0.1,0.7,0.1c0.7,0,1.2-0.2,1.6-0.6s0.5-1,0.5-1.9V80c0-0.3,0-0.6,0-0.9c0-0.3,0-0.5,0.1-0.6h-1.1
		l0,0.8h0c0-0.1-0.1-0.2-0.2-0.3c-0.1-0.1-0.2-0.2-0.3-0.3c-0.1-0.1-0.3-0.2-0.4-0.2c-0.2-0.1-0.4-0.1-0.6-0.1c-0.3,0-0.5,0-0.7,0.1
		c-0.2,0.1-0.4,0.2-0.6,0.4c-0.2,0.2-0.3,0.4-0.4,0.6C208.3,79.8,208.3,80.1,208.3,80.3L208.3,80.3z M210.3,79.4
		c0.2,0,0.3,0,0.4,0.1s0.2,0.1,0.3,0.2c0.1,0.1,0.2,0.1,0.2,0.2c0.1,0.1,0.1,0.1,0.2,0.2v1.5l-0.4,0c-0.6,0-1-0.1-1.3-0.3
		c-0.3-0.2-0.4-0.4-0.4-0.8c0-0.4,0.1-0.6,0.2-0.8C209.8,79.5,210,79.4,210.3,79.4z M217.3,84.4c0,0-0.1,0-0.2,0.1
		c-0.1,0-0.2,0-0.4,0c-0.4,0-0.6-0.1-0.8-0.3c-0.2-0.2-0.3-0.4-0.4-0.6v-5h-1.2v6.8h1.1v-0.9h0c0,0.1,0.1,0.3,0.2,0.4
		c0.1,0.1,0.2,0.2,0.3,0.3s0.2,0.2,0.4,0.2c0.2,0.1,0.3,0.1,0.6,0.1c0.2,0,0.3,0,0.4,0s0.2-0.1,0.2-0.1
		C217.5,85.5,217.3,84.4,217.3,84.4z M222.7,83.1c0-0.3,0-0.5,0-0.8c0-0.2,0-0.4-0.1-0.6h-3.5c0-0.8,0.2-1.4,0.5-1.8
		c0.3-0.4,0.8-0.6,1.3-0.6c0.2,0,0.4,0,0.5,0.1s0.3,0.1,0.4,0.2c0.1,0.1,0.2,0.1,0.3,0.2c0.1,0.1,0.1,0.1,0.2,0.2l0.4-0.8
		c0,0-0.1-0.1-0.2-0.2c-0.1-0.1-0.2-0.2-0.4-0.3c-0.2-0.1-0.4-0.2-0.6-0.2c-0.2-0.1-0.5-0.1-0.8-0.1c-0.4,0-0.8,0.1-1.2,0.2
		c-0.3,0.1-0.6,0.4-0.9,0.7c-0.2,0.3-0.4,0.7-0.6,1.1c-0.1,0.5-0.2,1-0.2,1.7c0,0.6,0.1,1.1,0.2,1.6c0.1,0.4,0.3,0.8,0.6,1.1
		c0.2,0.3,0.5,0.5,0.8,0.6c0.3,0.1,0.6,0.2,1,0.2c0.7,0,1.2-0.2,1.5-0.6C222.5,84.6,222.7,84,222.7,83.1L222.7,83.1z M220.5,84.7
		c-0.4,0-0.7-0.2-1-0.5c-0.2-0.3-0.4-0.8-0.4-1.5h2.5c0,0,0,0.1,0,0.2c0,0.1,0,0.2,0,0.3c0,0.5-0.1,0.8-0.3,1.1
		C221.2,84.5,220.9,84.7,220.5,84.7z M231.2,86.9c0,0-0.1,0.1-0.2,0.2c-0.1,0.1-0.2,0.1-0.3,0.2c-0.1,0.1-0.3,0.1-0.5,0.2
		c-0.2,0-0.4,0.1-0.6,0.1c-0.4,0-0.7-0.1-1-0.3c-0.2-0.2-0.3-0.5-0.3-0.8c0-0.2,0-0.4,0.1-0.5c0.1-0.2,0.1-0.3,0.2-0.5
		c0.1-0.2,0.2-0.3,0.4-0.5c0.2-0.2,0.4-0.3,0.6-0.5l0.8-0.7c0.2-0.2,0.4-0.4,0.6-0.6c0.2-0.2,0.4-0.4,0.5-0.6
		c0.1-0.2,0.3-0.5,0.3-0.7c0.1-0.3,0.1-0.6,0.1-0.9c0-0.7-0.2-1.4-0.7-1.8c-0.5-0.5-1.1-0.7-2-0.7c-0.4,0-0.7,0-0.9,0.1
		c-0.3,0.1-0.5,0.1-0.7,0.2s-0.4,0.2-0.5,0.3c-0.1,0.1-0.2,0.2-0.3,0.2l0.5,1.1c0.1-0.1,0.1-0.1,0.3-0.2s0.3-0.2,0.4-0.3
		s0.3-0.2,0.5-0.2c0.2-0.1,0.4-0.1,0.7-0.1c0.5,0,0.9,0.1,1.1,0.4c0.3,0.2,0.4,0.5,0.4,0.9c0,0.2,0,0.4-0.1,0.6
		c-0.1,0.2-0.1,0.3-0.2,0.5c-0.1,0.2-0.2,0.3-0.4,0.5c-0.2,0.2-0.3,0.3-0.5,0.5l-0.8,0.7c-0.3,0.2-0.5,0.4-0.7,0.6
		c-0.2,0.2-0.4,0.4-0.5,0.6c-0.1,0.2-0.3,0.5-0.3,0.7c-0.1,0.3-0.1,0.6-0.1,0.9c0,0.3,0.1,0.6,0.2,0.9c0.1,0.3,0.3,0.5,0.5,0.7
		s0.5,0.4,0.8,0.5c0.3,0.1,0.7,0.2,1,0.2c0.3,0,0.6,0,0.9-0.1c0.2-0.1,0.5-0.1,0.6-0.2c0.2-0.1,0.3-0.2,0.4-0.2
		c0.1-0.1,0.2-0.1,0.2-0.2L231.2,86.9L231.2,86.9z M234.6,78.6h-1.2v6.8h1.2V78.6z M234,87.1c-0.2,0-0.4,0.1-0.6,0.2
		s-0.2,0.4-0.2,0.6c0,0.2,0.1,0.4,0.2,0.6s0.3,0.2,0.6,0.2c0.2,0,0.4-0.1,0.6-0.2s0.2-0.3,0.2-0.6c0-0.2-0.1-0.4-0.2-0.6
		S234.2,87.1,234,87.1z M240.1,84.1c0,0-0.1,0.1-0.1,0.1c-0.1,0.1-0.1,0.1-0.2,0.2c-0.1,0.1-0.2,0.1-0.3,0.1s-0.3,0.1-0.5,0.1
		c-0.2,0-0.5,0-0.7-0.1c-0.2-0.1-0.4-0.2-0.6-0.4c-0.2-0.2-0.3-0.5-0.4-0.8c-0.1-0.3-0.1-0.7-0.1-1.2c0-0.5,0-0.9,0.1-1.3
		c0.1-0.3,0.2-0.6,0.3-0.8c0.1-0.2,0.3-0.4,0.5-0.4c0.2-0.1,0.4-0.1,0.7-0.1c0.4,0,0.6,0.1,0.8,0.2c0.2,0.1,0.3,0.2,0.4,0.3l0.5-0.8
		c0-0.1-0.1-0.1-0.2-0.2c-0.1-0.1-0.2-0.2-0.3-0.2c-0.1-0.1-0.3-0.1-0.5-0.2c-0.2-0.1-0.4-0.1-0.7-0.1c-0.4,0-0.7,0.1-1.1,0.2
		s-0.6,0.3-0.9,0.6c-0.2,0.3-0.4,0.7-0.6,1.1s-0.2,1-0.2,1.7c0,0.7,0.1,1.2,0.3,1.7s0.4,0.8,0.7,1.1c0.3,0.3,0.6,0.5,0.9,0.6
		c0.3,0.1,0.7,0.2,1,0.2c0.3,0,0.5,0,0.7-0.1c0.2,0,0.4-0.1,0.5-0.2c0.1-0.1,0.3-0.1,0.3-0.2c0.1-0.1,0.2-0.1,0.2-0.2L240.1,84.1
		L240.1,84.1z M245.6,78.6V83c0,0.6-0.1,1-0.3,1.2c-0.2,0.3-0.5,0.4-0.9,0.4c-0.3,0-0.6-0.1-0.9-0.3c-0.2-0.2-0.4-0.3-0.5-0.5v-5.3
		h-1.2v10.1l1.2,0.1v-4.1h0c0,0.1,0.1,0.1,0.2,0.2c0.1,0.1,0.2,0.2,0.3,0.3s0.3,0.2,0.5,0.2c0.2,0.1,0.4,0.1,0.7,0.1
		c0.6,0,1.1-0.2,1.4-0.6c0.4-0.4,0.5-1,0.5-1.9v-4.5L245.6,78.6L245.6,78.6z M252.8,83.1c0-0.3,0-0.5,0-0.8c0-0.2,0-0.4-0.1-0.6
		h-3.5c0-0.8,0.2-1.4,0.5-1.8c0.3-0.4,0.8-0.6,1.3-0.6c0.2,0,0.4,0,0.5,0.1s0.3,0.1,0.4,0.2c0.1,0.1,0.2,0.1,0.3,0.2
		c0.1,0.1,0.1,0.1,0.2,0.2l0.4-0.8c0,0-0.1-0.1-0.2-0.2c-0.1-0.1-0.2-0.2-0.4-0.3c-0.2-0.1-0.4-0.2-0.6-0.2
		c-0.2-0.1-0.5-0.1-0.8-0.1c-0.4,0-0.8,0.1-1.2,0.2c-0.3,0.1-0.6,0.4-0.9,0.7c-0.2,0.3-0.4,0.7-0.6,1.1c-0.1,0.5-0.2,1-0.2,1.7
		c0,0.6,0.1,1.1,0.2,1.6c0.1,0.4,0.3,0.8,0.6,1.1c0.2,0.3,0.5,0.5,0.8,0.6c0.3,0.1,0.6,0.2,1,0.2c0.7,0,1.2-0.2,1.5-0.6
		C252.6,84.6,252.8,84,252.8,83.1L252.8,83.1z M250.6,84.7c-0.4,0-0.7-0.2-1-0.5c-0.2-0.3-0.4-0.8-0.4-1.5h2.5c0,0,0,0.1,0,0.2
		c0,0.1,0,0.2,0,0.3c0,0.5-0.1,0.8-0.3,1.1C251.3,84.5,251,84.7,250.6,84.7z M257.4,84.4c0,0-0.1,0-0.2,0.1c-0.1,0-0.2,0-0.4,0
		c-0.4,0-0.6-0.1-0.8-0.3c-0.2-0.2-0.3-0.4-0.4-0.6v-5h-1.2v6.8h1.1v-0.9h0c0,0.1,0.1,0.3,0.2,0.4c0.1,0.1,0.2,0.2,0.3,0.3
		s0.2,0.2,0.4,0.2c0.2,0.1,0.3,0.1,0.6,0.1c0.2,0,0.3,0,0.4,0s0.2-0.1,0.2-0.1C257.5,85.5,257.4,84.4,257.4,84.4z M262.2,78.6V83
		c0,0.6-0.1,1-0.3,1.2c-0.2,0.3-0.5,0.4-0.9,0.4c-0.3,0-0.6-0.1-0.9-0.3c-0.2-0.2-0.4-0.3-0.5-0.5v-5.3h-1.2v10.1l1.2,0.1v-4.1h0
		c0,0.1,0.1,0.1,0.2,0.2c0.1,0.1,0.2,0.2,0.3,0.3c0.1,0.1,0.3,0.2,0.5,0.2c0.2,0.1,0.4,0.1,0.7,0.1c0.6,0,1.1-0.2,1.4-0.6
		s0.5-1,0.5-1.9v-4.5L262.2,78.6L262.2,78.6z M269.5,83.1c0-0.3,0-0.5,0-0.8c0-0.2,0-0.4-0.1-0.6h-3.5c0-0.8,0.2-1.4,0.5-1.8
		c0.3-0.4,0.8-0.6,1.3-0.6c0.2,0,0.4,0,0.5,0.1s0.3,0.1,0.4,0.2c0.1,0.1,0.2,0.1,0.3,0.2c0.1,0.1,0.1,0.1,0.2,0.2l0.4-0.8
		c0,0-0.1-0.1-0.2-0.2c-0.1-0.1-0.2-0.2-0.4-0.3c-0.2-0.1-0.4-0.2-0.6-0.2c-0.2-0.1-0.5-0.1-0.8-0.1c-0.4,0-0.8,0.1-1.2,0.2
		c-0.3,0.1-0.6,0.4-0.9,0.7s-0.4,0.7-0.6,1.1c-0.1,0.5-0.2,1-0.2,1.7c0,0.6,0.1,1.1,0.2,1.6c0.1,0.4,0.3,0.8,0.6,1.1
		c0.2,0.3,0.5,0.5,0.8,0.6c0.3,0.1,0.6,0.2,1,0.2c0.7,0,1.2-0.2,1.5-0.6C269.3,84.6,269.5,84,269.5,83.1L269.5,83.1z M267.3,84.7
		c-0.4,0-0.7-0.2-1-0.5s-0.4-0.8-0.4-1.5h2.5c0,0,0,0.1,0,0.2c0,0.1,0,0.2,0,0.3c0,0.5-0.1,0.8-0.3,1.1
		C268,84.5,267.7,84.7,267.3,84.7z M272.2,78.6H271v6.8h1.2C272.2,85.4,272.2,78.6,272.2,78.6z M271.6,87.1c-0.2,0-0.4,0.1-0.6,0.2
		c-0.1,0.2-0.2,0.4-0.2,0.6c0,0.2,0.1,0.4,0.2,0.6c0.1,0.2,0.3,0.2,0.6,0.2c0.2,0,0.4-0.1,0.6-0.2s0.2-0.3,0.2-0.6
		c0-0.2-0.1-0.4-0.2-0.6C272,87.2,271.8,87.1,271.6,87.1z M276.9,84.5h-1.5v-3.8c0-0.5,0.1-0.8,0.2-1c0.1-0.2,0.3-0.3,0.6-0.3
		c0.2,0,0.3,0,0.4,0.1s0.2,0.1,0.3,0.1l0.2-0.9c0,0-0.2-0.1-0.3-0.2c-0.2-0.1-0.4-0.1-0.7-0.1c-0.6,0-1,0.2-1.3,0.5
		c-0.3,0.3-0.4,0.9-0.4,1.6v3.9h-0.8v0.8l0.8,0.2l0.1,1.9h1v-1.9h1.6L276.9,84.5z M53.2,64.3h-1.1V65h0c0-0.1-0.1-0.1-0.2-0.2
		c-0.1-0.1-0.2-0.2-0.4-0.3c-0.1-0.1-0.3-0.2-0.5-0.3c-0.2-0.1-0.4-0.1-0.7-0.1c-0.3,0-0.6,0-0.8,0.1c-0.2,0.1-0.4,0.2-0.6,0.4
		s-0.3,0.5-0.4,0.8c-0.1,0.3-0.1,0.7-0.1,1.2v4.5h1.2v-4.4c0-0.6,0.1-1,0.3-1.2c0.2-0.2,0.5-0.4,0.9-0.4c0.3,0,0.6,0.1,0.8,0.2
		c0.2,0.2,0.4,0.3,0.5,0.5v5.2h1.2C53.2,71.1,53.2,64.3,53.2,64.3z M58.7,64.3v4.4c0,0.6-0.1,1-0.3,1.2c-0.2,0.3-0.5,0.4-0.9,0.4
		c-0.3,0-0.6-0.1-0.9-0.3c-0.2-0.2-0.4-0.3-0.5-0.5v-5.3H55v6.8H56v-0.8h0c0,0.1,0.1,0.1,0.2,0.2c0.1,0.1,0.2,0.2,0.4,0.3
		c0.2,0.1,0.3,0.2,0.5,0.3c0.2,0.1,0.4,0.1,0.7,0.1c0.3,0,0.6,0,0.8-0.1c0.2-0.1,0.5-0.2,0.6-0.4c0.2-0.2,0.3-0.5,0.4-0.8
		c0.1-0.3,0.1-0.7,0.1-1.2v-4.5L58.7,64.3L58.7,64.3z M61.3,67.6c0,0.7,0.1,1.3,0.3,1.7c0.2,0.5,0.4,0.8,0.7,1.1s0.6,0.5,1,0.6
		c0.4,0.1,0.7,0.2,1.1,0.2c0.2,0,0.4,0,0.6,0c0.2,0,0.3-0.1,0.4-0.1v3.3l1.2,0.1V64.3h-1.1V65h0c0-0.1-0.1-0.1-0.2-0.2
		c-0.1-0.1-0.2-0.2-0.3-0.3c-0.1-0.1-0.3-0.2-0.5-0.3c-0.2-0.1-0.4-0.1-0.7-0.1c-0.3,0-0.6,0.1-0.9,0.2c-0.3,0.1-0.5,0.3-0.8,0.6
		c-0.2,0.3-0.4,0.6-0.5,1.1C61.3,66.4,61.3,66.9,61.3,67.6L61.3,67.6z M64,65.1c0.2,0,0.3,0,0.5,0.1c0.1,0,0.3,0.1,0.4,0.2
		c0.1,0.1,0.2,0.1,0.3,0.2s0.1,0.1,0.2,0.2V70c-0.1,0.1-0.2,0.1-0.4,0.2c-0.1,0-0.3,0.1-0.5,0.1c-0.3,0-0.5,0-0.7-0.1
		c-0.2-0.1-0.4-0.2-0.6-0.4c-0.2-0.2-0.3-0.5-0.4-0.8s-0.1-0.7-0.1-1.2c0-0.5,0-0.9,0.1-1.2c0.1-0.3,0.2-0.6,0.3-0.8
		c0.1-0.2,0.3-0.3,0.5-0.4C63.6,65.2,63.8,65.1,64,65.1z M77.4,74.1l-3.2-9.8h-1l-3.1,9.8h1.3l1.9-6.5c0.1-0.4,0.2-0.7,0.3-1
		c0.1-0.3,0.1-0.6,0.1-0.8h0c0,0.2,0.1,0.5,0.1,0.8c0.1,0.3,0.2,0.7,0.3,1l2,6.5C76.2,74.1,77.4,74.1,77.4,74.1z M82.1,68.8
		c0-0.3,0-0.5,0-0.8c0-0.2,0-0.4-0.1-0.6h-3.5c0-0.8,0.2-1.4,0.5-1.8c0.3-0.4,0.8-0.6,1.3-0.6c0.2,0,0.4,0,0.5,0.1s0.3,0.1,0.4,0.2
		c0.1,0.1,0.2,0.1,0.3,0.2c0.1,0.1,0.1,0.1,0.2,0.2l0.4-0.8c0,0-0.1-0.1-0.2-0.2c-0.1-0.1-0.2-0.2-0.4-0.3c-0.2-0.1-0.4-0.2-0.6-0.2
		c-0.2-0.1-0.5-0.1-0.8-0.1c-0.4,0-0.8,0.1-1.2,0.2c-0.3,0.1-0.6,0.4-0.9,0.7c-0.2,0.3-0.4,0.7-0.6,1.1c-0.1,0.5-0.2,1-0.2,1.7
		c0,0.6,0.1,1.1,0.2,1.6c0.1,0.4,0.3,0.8,0.6,1.1c0.2,0.3,0.5,0.5,0.8,0.6c0.3,0.1,0.7,0.2,1,0.2c0.7,0,1.2-0.2,1.5-0.6
		C82,70.2,82.1,69.6,82.1,68.8z M80,70.3c-0.4,0-0.7-0.2-1-0.5c-0.2-0.3-0.4-0.8-0.4-1.5h2.5c0,0,0,0.1,0,0.2c0,0.1,0,0.2,0,0.3
		c0,0.5-0.1,0.8-0.3,1.1C80.6,70.2,80.3,70.3,80,70.3z M86.7,70.1c0,0-0.1,0-0.2,0.1s-0.2,0-0.4,0c-0.4,0-0.6-0.1-0.8-0.3
		c-0.2-0.2-0.3-0.4-0.4-0.6v-5h-1.2v6.8h1.1v-0.9h0c0,0.1,0.1,0.3,0.2,0.4s0.2,0.2,0.3,0.3c0.1,0.1,0.2,0.2,0.4,0.2
		c0.2,0.1,0.3,0.1,0.6,0.1c0.2,0,0.3,0,0.4,0s0.2-0.1,0.2-0.1C86.8,71.1,86.7,70.1,86.7,70.1z M92.9,68c0-0.7-0.1-1.3-0.3-1.8
		S92.3,65.3,92,65c-0.3-0.3-0.6-0.5-1-0.6c-0.4-0.1-0.8-0.2-1.2-0.2c-0.3,0-0.5,0-0.7,0.1c-0.2,0.1-0.4,0.1-0.6,0.2
		c-0.2,0.1-0.3,0.1-0.4,0.2c-0.1,0.1-0.2,0.1-0.2,0.2v9.5l1.2,0.1v-4h0c0,0.1,0.1,0.2,0.2,0.3c0.1,0.1,0.2,0.2,0.3,0.3
		c0.1,0.1,0.3,0.2,0.5,0.2c0.2,0.1,0.4,0.1,0.6,0.1c0.7,0,1.3-0.3,1.7-0.8S92.9,69.1,92.9,68z M91.7,67.8c0,0.9-0.1,1.5-0.4,1.9
		c-0.3,0.4-0.6,0.6-1.1,0.6c-0.4,0-0.6-0.1-0.8-0.2c-0.2-0.2-0.4-0.3-0.5-0.5v-4.2c0.1-0.1,0.2-0.1,0.3-0.2c0.1-0.1,0.3-0.1,0.5-0.1
		c0.3,0,0.5,0,0.8,0.1c0.2,0.1,0.4,0.2,0.6,0.5c0.2,0.2,0.3,0.5,0.4,0.8S91.7,67.3,91.7,67.8z M97.4,70.1c0,0-0.1,0-0.2,0.1
		s-0.2,0-0.4,0c-0.4,0-0.6-0.1-0.8-0.3c-0.2-0.2-0.3-0.4-0.4-0.6v-5h-1.2v6.8h1.1v-0.9h0c0,0.1,0.1,0.3,0.2,0.4
		c0.1,0.1,0.2,0.2,0.3,0.3c0.1,0.1,0.2,0.2,0.4,0.2c0.2,0.1,0.3,0.1,0.6,0.1c0.2,0,0.3,0,0.4,0c0.1,0,0.2-0.1,0.2-0.1
		C97.5,71.1,97.4,70.1,97.4,70.1z M98.1,66c0,0.4,0.1,0.7,0.2,1c0.2,0.3,0.4,0.5,0.6,0.6c0.3,0.2,0.6,0.3,0.9,0.4
		c0.3,0.1,0.7,0.1,1.1,0.1h0.4v0.7c0,0.6-0.1,1-0.3,1.2c-0.2,0.2-0.5,0.3-0.9,0.3c-0.3,0-0.6-0.1-0.9-0.2c-0.2-0.1-0.4-0.3-0.5-0.4
		l-0.5,0.8c0.1,0.1,0.2,0.2,0.3,0.3c0.1,0.1,0.3,0.2,0.4,0.3c0.2,0.1,0.4,0.2,0.6,0.2c0.2,0.1,0.5,0.1,0.7,0.1
		c0.7,0,1.2-0.2,1.6-0.6c0.4-0.4,0.5-1,0.5-1.9v-3.1c0-0.3,0-0.6,0-0.9c0-0.3,0-0.5,0.1-0.6h-1.1l0,0.8h0c0-0.1-0.1-0.2-0.2-0.3
		c-0.1-0.1-0.2-0.2-0.3-0.3c-0.1-0.1-0.3-0.2-0.4-0.2c-0.2-0.1-0.4-0.1-0.6-0.1c-0.3,0-0.5,0-0.7,0.1c-0.2,0.1-0.4,0.2-0.6,0.4
		c-0.2,0.2-0.3,0.4-0.4,0.6C98.1,65.5,98.1,65.7,98.1,66L98.1,66z M100.1,65.1c0.2,0,0.3,0,0.4,0.1s0.2,0.1,0.3,0.2
		c0.1,0.1,0.2,0.1,0.2,0.2c0.1,0.1,0.1,0.1,0.2,0.2v1.5l-0.4,0c-0.6,0-1-0.1-1.3-0.3c-0.3-0.2-0.4-0.4-0.4-0.8
		c0-0.4,0.1-0.6,0.2-0.8C99.6,65.2,99.8,65.1,100.1,65.1z M108.9,64.3h-1.1V65h0c0-0.1-0.1-0.1-0.2-0.2c-0.1-0.1-0.2-0.2-0.4-0.3
		c-0.1-0.1-0.3-0.2-0.5-0.3c-0.2-0.1-0.4-0.1-0.7-0.1c-0.3,0-0.6,0-0.8,0.1c-0.2,0.1-0.4,0.2-0.6,0.4s-0.3,0.5-0.4,0.8
		c-0.1,0.3-0.1,0.7-0.1,1.2v4.5h1.2v-4.4c0-0.6,0.1-1,0.3-1.2c0.2-0.2,0.5-0.4,0.9-0.4c0.3,0,0.6,0.1,0.8,0.2
		c0.2,0.2,0.4,0.3,0.5,0.5v5.2h1.2C108.9,71.1,108.9,64.3,108.9,64.3z M114.5,69.8c0,0-0.1,0.1-0.1,0.1c-0.1,0.1-0.1,0.1-0.2,0.2
		s-0.2,0.1-0.3,0.1c-0.1,0-0.3,0.1-0.5,0.1c-0.2,0-0.5,0-0.7-0.1c-0.2-0.1-0.4-0.2-0.6-0.4c-0.2-0.2-0.3-0.5-0.4-0.8
		c-0.1-0.3-0.1-0.7-0.1-1.2c0-0.5,0-0.9,0.1-1.3c0.1-0.3,0.2-0.6,0.3-0.8c0.1-0.2,0.3-0.4,0.5-0.4c0.2-0.1,0.4-0.1,0.7-0.1
		c0.4,0,0.6,0.1,0.8,0.2c0.2,0.1,0.3,0.2,0.4,0.3l0.5-0.8c0-0.1-0.1-0.1-0.2-0.2c-0.1-0.1-0.2-0.2-0.3-0.2c-0.1-0.1-0.3-0.1-0.5-0.2
		c-0.2-0.1-0.4-0.1-0.7-0.1c-0.4,0-0.7,0.1-1.1,0.2c-0.3,0.1-0.6,0.3-0.9,0.6c-0.2,0.3-0.4,0.7-0.6,1.1c-0.1,0.5-0.2,1-0.2,1.7
		c0,0.7,0.1,1.2,0.3,1.7c0.2,0.5,0.4,0.8,0.7,1.1c0.3,0.3,0.6,0.5,0.9,0.6c0.3,0.1,0.7,0.2,1,0.2c0.3,0,0.5,0,0.7-0.1
		c0.2,0,0.4-0.1,0.5-0.2c0.1-0.1,0.3-0.1,0.3-0.2c0.1-0.1,0.2-0.1,0.2-0.2C115,70.6,114.5,69.8,114.5,69.8z M119.9,64.3v4.4
		c0,0.6-0.1,1-0.3,1.2c-0.2,0.3-0.5,0.4-0.9,0.4c-0.3,0-0.6-0.1-0.9-0.3c-0.2-0.2-0.4-0.3-0.5-0.5v-5.3h-1.2v10.1l1.2,0.1v-4.1h0
		c0,0.1,0.1,0.1,0.2,0.2c0.1,0.1,0.2,0.2,0.3,0.3c0.1,0.1,0.3,0.2,0.5,0.2c0.2,0.1,0.4,0.1,0.7,0.1c0.6,0,1.1-0.2,1.4-0.6
		c0.4-0.4,0.5-1,0.5-1.9v-4.5L119.9,64.3L119.9,64.3z M127.2,68.8c0-0.3,0-0.5,0-0.8c0-0.2,0-0.4-0.1-0.6h-3.5
		c0-0.8,0.2-1.4,0.5-1.8c0.3-0.4,0.8-0.6,1.3-0.6c0.2,0,0.4,0,0.5,0.1c0.2,0,0.3,0.1,0.4,0.2c0.1,0.1,0.2,0.1,0.3,0.2
		c0.1,0.1,0.1,0.1,0.2,0.2l0.4-0.8c0,0-0.1-0.1-0.2-0.2c-0.1-0.1-0.2-0.2-0.4-0.3c-0.2-0.1-0.4-0.2-0.6-0.2
		c-0.2-0.1-0.5-0.1-0.8-0.1c-0.4,0-0.8,0.1-1.2,0.2c-0.3,0.1-0.6,0.4-0.9,0.7c-0.2,0.3-0.4,0.7-0.6,1.1c-0.1,0.5-0.2,1-0.2,1.7
		c0,0.6,0.1,1.1,0.2,1.6c0.1,0.4,0.3,0.8,0.6,1.1c0.2,0.3,0.5,0.5,0.8,0.6c0.3,0.1,0.7,0.2,1,0.2c0.7,0,1.2-0.2,1.5-0.6
		C127,70.2,127.2,69.6,127.2,68.8L127.2,68.8z M125,70.3c-0.4,0-0.7-0.2-1-0.5c-0.2-0.3-0.4-0.8-0.4-1.5h2.5c0,0,0,0.1,0,0.2
		c0,0.1,0,0.2,0,0.3c0,0.5-0.1,0.8-0.3,1.1C125.6,70.2,125.4,70.3,125,70.3z M131.7,70.1c0,0-0.1,0-0.2,0.1c-0.1,0-0.2,0-0.4,0
		c-0.4,0-0.6-0.1-0.8-0.3c-0.2-0.2-0.3-0.4-0.4-0.6v-5h-1.2v6.8h1.1v-0.9h0c0,0.1,0.1,0.3,0.2,0.4s0.2,0.2,0.3,0.3
		c0.1,0.1,0.2,0.2,0.4,0.2c0.2,0.1,0.3,0.1,0.6,0.1c0.2,0,0.3,0,0.4,0s0.2-0.1,0.2-0.1C131.8,71.1,131.7,70.1,131.7,70.1z
		 M135.7,69.7c-0.1,0.1-0.2,0.2-0.4,0.3c-0.2,0.1-0.5,0.2-0.8,0.2c-0.3,0-0.5-0.1-0.7-0.2s-0.2-0.3-0.2-0.5c0-0.3,0.1-0.5,0.2-0.6
		c0.1-0.2,0.4-0.3,0.7-0.5l0.4-0.3c0.5-0.3,0.8-0.6,1.1-0.9c0.3-0.3,0.4-0.7,0.4-1.2c0-0.5-0.2-1-0.6-1.4c-0.4-0.4-0.9-0.6-1.6-0.6
		c-0.3,0-0.5,0-0.7,0.1c-0.2,0.1-0.4,0.1-0.5,0.2c-0.2,0.1-0.3,0.2-0.4,0.2c-0.1,0.1-0.2,0.2-0.3,0.2l0.6,0.9
		c0.1-0.1,0.1-0.1,0.2-0.2c0.1-0.1,0.2-0.1,0.3-0.2c0.1-0.1,0.2-0.1,0.4-0.2c0.1,0,0.3-0.1,0.5-0.1c0.3,0,0.6,0.1,0.8,0.2
		s0.3,0.3,0.3,0.6c0,0.2,0,0.3-0.1,0.4c0,0.1-0.1,0.2-0.2,0.3s-0.2,0.2-0.3,0.3c-0.1,0.1-0.3,0.2-0.4,0.3l-0.4,0.3
		c-0.4,0.3-0.8,0.6-1,0.9c-0.2,0.3-0.4,0.7-0.4,1.2c0,0.3,0,0.5,0.1,0.7c0.1,0.2,0.2,0.4,0.4,0.6c0.2,0.2,0.4,0.3,0.6,0.4
		c0.2,0.1,0.5,0.1,0.8,0.1c0.3,0,0.5,0,0.7-0.1c0.2-0.1,0.4-0.1,0.5-0.2c0.1-0.1,0.3-0.2,0.3-0.2c0.1-0.1,0.2-0.1,0.2-0.2
		L135.7,69.7L135.7,69.7z M141.6,69.8c0,0-0.1,0.1-0.1,0.1c-0.1,0.1-0.1,0.1-0.2,0.2c-0.1,0.1-0.2,0.1-0.3,0.1
		c-0.1,0-0.3,0.1-0.5,0.1c-0.2,0-0.5,0-0.7-0.1c-0.2-0.1-0.4-0.2-0.6-0.4c-0.2-0.2-0.3-0.5-0.4-0.8c-0.1-0.3-0.1-0.7-0.1-1.2
		c0-0.5,0-0.9,0.1-1.3c0.1-0.3,0.2-0.6,0.3-0.8c0.1-0.2,0.3-0.4,0.5-0.4c0.2-0.1,0.4-0.1,0.7-0.1c0.4,0,0.6,0.1,0.8,0.2
		c0.2,0.1,0.3,0.2,0.4,0.3l0.5-0.8c0-0.1-0.1-0.1-0.2-0.2c-0.1-0.1-0.2-0.2-0.3-0.2s-0.3-0.1-0.5-0.2c-0.2-0.1-0.4-0.1-0.7-0.1
		c-0.4,0-0.7,0.1-1.1,0.2c-0.3,0.1-0.6,0.3-0.9,0.6c-0.2,0.3-0.4,0.7-0.6,1.1s-0.2,1-0.2,1.7c0,0.7,0.1,1.2,0.3,1.7s0.4,0.8,0.7,1.1
		c0.3,0.3,0.6,0.5,0.9,0.6c0.3,0.1,0.7,0.2,1,0.2c0.3,0,0.5,0,0.7-0.1c0.2,0,0.4-0.1,0.5-0.2c0.1-0.1,0.3-0.1,0.3-0.2
		c0.1-0.1,0.2-0.1,0.2-0.2C142.1,70.6,141.6,69.8,141.6,69.8z M147,64.3v4.4c0,0.6-0.1,1-0.3,1.2c-0.2,0.3-0.5,0.4-0.9,0.4
		c-0.3,0-0.6-0.1-0.9-0.3c-0.2-0.2-0.4-0.3-0.5-0.5v-5.3h-1.2v10.1l1.2,0.1v-4.1h0c0,0.1,0.1,0.1,0.2,0.2c0.1,0.1,0.2,0.2,0.3,0.3
		s0.3,0.2,0.5,0.2c0.2,0.1,0.4,0.1,0.7,0.1c0.6,0,1.1-0.2,1.4-0.6c0.4-0.4,0.5-1,0.5-1.9v-4.5L147,64.3L147,64.3z M154.7,64.3h-1.1
		V65h0c0-0.1-0.1-0.1-0.2-0.2c-0.1-0.1-0.2-0.2-0.4-0.3c-0.1-0.1-0.3-0.2-0.5-0.3s-0.4-0.1-0.7-0.1c-0.3,0-0.6,0-0.8,0.1
		c-0.2,0.1-0.4,0.2-0.6,0.4s-0.3,0.5-0.4,0.8c-0.1,0.3-0.1,0.7-0.1,1.2v4.5h1.2v-4.4c0-0.6,0.1-1,0.3-1.2c0.2-0.2,0.5-0.4,0.9-0.4
		c0.3,0,0.6,0.1,0.8,0.2c0.2,0.2,0.4,0.3,0.5,0.5v5.2h1.2L154.7,64.3L154.7,64.3z M159.3,70.1h-1.5v-3.8c0-0.5,0.1-0.8,0.2-1
		c0.1-0.2,0.3-0.3,0.6-0.3c0.2,0,0.3,0,0.4,0.1c0.1,0,0.2,0.1,0.3,0.1l0.2-0.9c0,0-0.2-0.1-0.3-0.2c-0.2-0.1-0.4-0.1-0.7-0.1
		c-0.6,0-1,0.2-1.3,0.5c-0.3,0.3-0.4,0.9-0.4,1.6v3.9h-0.8v0.8l0.8,0.2l0.1,1.9h1v-1.9h1.6L159.3,70.1z M164.5,70.3l-2.8-5.1v0h2.9
		l-0.1-1h-4.3V65l2.8,5.1v0h-2.7v0.9h4.1L164.5,70.3L164.5,70.3z"/>
</g>
<g id="Adler-und-Saeulenelement">
	<path d="M17.3,10.2c0-0.3,0.1-0.5,0.1-0.8c0-0.2,0-0.3,0-0.5c2.4,0,4.5-1.8,4.5-3.7c0-1-0.7-1.8-1-2.2c0.1,0,0.2,0,0.3-0.1
		c0.3,0.3,1.3,1.4,1.3,2.7C22.3,8,20,10.2,17.3,10.2 M14.9,2c0-0.3-0.1-0.5-0.3-0.7c0-0.2,0.1-0.5,0.5-0.3c-0.2,0.2,0,0.6,0,0.6
		s0.4-0.2,0.3-0.5C16,1.3,15.5,2.1,14.9,2 M14.3,3.2c-0.1-0.4-0.3-0.7-0.5-1c-0.2-0.2-0.6-0.5-1-0.5c-0.2,0-0.6,0.1-0.8,0.2
		c-0.1-0.2-0.3-0.5-0.3-0.7c0-0.2,0.3-0.3,0.9-0.3c1.2,0,2,0.6,2,1.5C14.5,2.6,14.4,2.9,14.3,3.2 M17.5,19.1c0.1,0,0.2,0,0.3,0.1
		c0.4,1,1.7,2.8,1.8,2.9l0,0l0,0c0.3-0.1,1.2-0.2,1.9-0.2h0c0.1,0,0.2,0,0.2,0.1c0,0,0.1,0.1,0.1,0.2c0,0.2-0.1,0.5-0.2,0.6
		c-0.3-0.3-0.7-0.4-1.3-0.4c-0.2,0-0.4,0.1-0.6,0.1l-0.1,0l-0.1,0l0.4,0.4c0.6,0.6,1.1,1.1,1.1,1.4c0,0.2-0.2,0.5-0.4,0.6
		c0-0.6-0.7-1.4-1.3-1.9l-0.1,0l0,0.2c0,0.1,0,0.4,0,0.6c0,1.2-0.1,1.3-0.5,1.3c-0.1,0-0.2,0-0.2,0c0.2-0.3,0.3-0.7,0.3-1.3l0-0.3
		l0-0.2c0-0.3,0-0.5,0-0.6l0-0.1l-0.1,0c-0.2,0-0.5-0.1-0.8-0.1c-0.6,0-1,0.1-1.2,0.3c-0.2-0.2-0.4-0.4-0.4-0.6
		c0-0.2,0.2-0.3,0.3-0.3c0.1,0,0.2,0,0.3,0c0.2,0,0.6,0.1,1.4,0.1h0l0,0c-0.2-0.6-0.7-1.4-1.6-2.4C17.1,19.3,17.2,19.1,17.5,19.1
		 M10.1,22L10.1,22L10.1,22c0.8,0,1.2,0,1.4,0c0.1,0,0.2,0,0.3,0c0.2,0,0.3,0,0.3,0.3c0,0.2-0.2,0.4-0.4,0.6
		c-0.3-0.3-0.7-0.3-1.2-0.3c-0.3,0-0.6,0-0.8,0.1l0,0l0,0l0,0.1c0,0.2,0.1,0.4,0.1,0.6l0,0.2l0,0.3c0,0.7,0.1,1,0.3,1.3
		c-0.1,0-0.2,0-0.2,0c-0.4,0-0.5-0.2-0.5-1.3c0-0.2,0-0.5,0-0.6l0-0.2l-0.1,0C8.6,23.4,8,24.3,8,24.9c-0.2-0.1-0.4-0.4-0.4-0.6
		c0-0.3,0.5-0.8,1.1-1.4l0.4-0.4l-0.1,0c-0.1,0-0.4-0.1-0.6-0.1c-0.7,0-1.1,0.1-1.3,0.4c-0.1-0.1-0.2-0.4-0.2-0.6
		c0-0.1,0-0.2,0.1-0.2c0.1-0.1,0.1-0.1,0.2-0.1h0c0.7,0,1.6,0.1,1.9,0.2l0,0l0,0c0.1-0.1,1.4-1.9,1.8-2.9c0.1,0,0.2-0.1,0.3-0.1
		c0.3,0,0.3,0.2,0.4,0.5C10.8,20.6,10.3,21.4,10.1,22 M6.4,5.6c0-1.4,1-2.4,1.3-2.7c0.1,0,0.2,0,0.3,0.1C7.6,3.4,7,4.2,7,5.2
		c0,2,2.1,3.7,4.5,3.7c0,0.2,0,0.4,0,0.5c0,0.3,0,0.6,0,0.8C8.8,10.2,6.4,8,6.4,5.6 M24.7,9.8c1.2,1.9,2.2,1.9,3.6,1.9
		c-1.2-0.9-2-2.1-2.4-2.7l-2.2-3.6c-0.2-1.1-0.8-2.1-1.6-2.9c0.3-0.1,0.5-0.2,0.7-0.3c-1.5,0-2.9-0.7-3.7-0.7
		c-0.5,0-0.8,0.3-0.8,0.7c0,0.5,0.5,0.9,1.4,0.9c0.2,0,0.4,0,0.7-0.1c0.5,0.6,0.8,1.2,0.8,2.1c0,1.6-1.9,2.8-3.8,2.8
		c-0.1,0-0.2,0-0.3,0c-0.2-0.4-0.7-1-0.7-1.8c0-1.2,0.8-2.3,0.8-3.5c0-0.8-0.4-1.2-0.5-1.4c0.2-0.2,0.5-0.5,0.5-0.7
		c-0.1,0.1-0.3,0.1-0.5,0.1c-0.9,0-1.6-0.2-2.4-0.2c-0.4,0-0.5,0.1-0.5,0.2c0,0,0,0.1,0,0.1c-0.2-0.1-0.3-0.1-0.5-0.1
		c-0.2,0-0.4-0.1-0.7-0.1c-0.9,0-1.2,0.4-1.2,0.7c0,0.3,0.2,0.8,0.4,1.1C12.2,2.1,12.6,2,12.8,2c0.5,0,0.9,0.4,1.1,1
		C13.6,3,13.5,3,13.2,3c-0.9,0-1.4-0.3-1.6-0.3c0,0,0,0,0,0c0,0.1,0.2,0.4,0.7,0.6c0.6,0.2,1.6,0.3,1.7,0.4c0,0-0.2,0.3-0.3,0.4
		c0,0-0.1,0-0.1,0c-0.7-0.1-0.8-0.2-1.7-0.5c0,0,0,0,0,0c0,0.3,0.9,1.1,1.6,1.3c-0.6,0.8-1.4,1.6-1.8,2.9c-0.1,0-0.2,0-0.3,0
		c-1.9,0-3.8-1.2-3.8-2.8C7.6,4.3,8,3.7,8.4,3c0.3,0,0.5,0.1,0.7,0.1c0.9,0,1.3-0.5,1.4-0.9c0-0.4-0.3-0.7-0.8-0.7
		C8.9,1.5,7.4,2.2,6,2.2c0.1,0.1,0.4,0.2,0.7,0.3C5.8,3.3,5.2,4.4,5,5.5L2.8,9c-0.4,0.6-1.2,1.8-2.4,2.7c1.4,0,2.4,0,3.6-1.9L5.2,8
		c0.1,0.2,0.2,0.5,0.3,0.7l-2.3,3.6C2.8,12.9,2,14.1,0.8,15c1.4,0,2.4,0,3.6-1.9l2-3.1c0.1,0.2,0.3,0.3,0.5,0.5l-2.8,4.4
		c-0.4,0.6-1.2,1.8-2.4,2.7c1.4,0,2.4,0,3.6-1.9l2.7-4.3c0.2,0.1,0.4,0.2,0.5,0.3l-3.3,5.3C5,17.6,4.2,18.7,3,19.6
		c1.4,0,2.4,0,3.6-1.9l3.4-5.4c0.2,0.1,0.4,0.2,0.6,0.2l-3.8,6.1c-0.4,0.6-1.2,1.8-2.4,2.7c1.4,0,2.4,0,3.6-1.9l4.1-6.5
		c0,0,0.1,0,0.1,0c0.1,0.4,0.2,0.7,0.2,1c0,2.1-1.3,3.9-3,5.3c0.1,0,0.3,0.1,0.5,0.1c0.3,0,0.6,0,0.7,0c-0.4,0.9-1.2,2-1.6,2.5
		c-0.5-0.1-1.3-0.2-1.8-0.2c-0.5,0-0.6,0.3-0.6,0.6c0,0.5,0.2,0.9,0.5,1.1c0.1-0.2,0.3-0.6,1.3-0.6c0,0,0.1,0,0.1,0
		c-0.3,0.3-1.2,1-1.2,1.6c0,0.4,0.4,1,1,1c0-0.1,0-0.2,0-0.3c0-0.5,0.4-1,0.8-1.4c0,0.1,0,0.1,0,0.2c0,1.1,0.1,1.6,0.8,1.6
		c0.3,0,0.6-0.2,0.7-0.2C10,24.7,10,24.4,10,23.8c0-0.2,0-0.3,0-0.5c0-0.1,0-0.3,0-0.5c0.3,0,0.4,0,0.6,0c0,0,1-0.1,1.2,0.4
		c0.3-0.2,0.7-0.6,0.7-1c0-0.3-0.1-0.5-0.6-0.5c-0.2,0-0.8,0.1-1.3,0.1c0.1-0.3,0.8-1.2,1.3-1.9c0.1,0.3,0.2,0.5,0.5,0.8
		c0-0.4,0.3-1.8,0.9-2.5c0.1,0.5,0.2,1.1,0.2,2.2c0,2.8-0.7,4.8-2.1,5.2c0.2,0.3,0.6,0.6,1,0.6c0.5,0,0.8-0.6,1.1-1.1
		c0.1,0.4,0.6,1.4,1,1.4c0.4,0,0.8-1,1-1.4c0.3,0.6,0.6,1.1,1.1,1.1c0.4,0,0.8-0.3,1-0.6c-1.4-0.4-2.1-2.4-2.1-5.2
		c0-1.1,0.1-1.7,0.2-2.2c0.7,0.8,0.9,2.1,0.9,2.5c0.3-0.2,0.4-0.5,0.5-0.8c0.5,0.7,1.2,1.6,1.3,1.9c-0.5,0-1.1-0.1-1.3-0.1
		c-0.5,0-0.6,0.3-0.6,0.5c0,0.4,0.4,0.7,0.7,1c0.2-0.5,1.2-0.4,1.2-0.4c0.2,0,0.3,0,0.6,0c0,0.1,0,0.3,0,0.5c0,0.2,0,0.4,0,0.5
		c0,0.6,0,1-0.5,1.4c0.1,0.1,0.3,0.2,0.7,0.2c0.7,0,0.8-0.5,0.8-1.6c0-0.1,0-0.1,0-0.2c0.4,0.4,0.8,0.9,0.8,1.4c0,0.1,0,0.2,0,0.3
		c0.6,0,1-0.6,1-1c0-0.6-0.9-1.3-1.2-1.6c0,0,0.1,0,0.1,0c1,0,1.2,0.3,1.3,0.6c0.3-0.2,0.5-0.6,0.5-1.1c0-0.3-0.1-0.6-0.6-0.6
		c-0.5,0-1.3,0.1-1.8,0.2c-0.4-0.6-1.2-1.7-1.6-2.5c0.2,0,0.4,0,0.7,0c0.2,0,0.3,0,0.5-0.1c-1.6-1.4-3-3.2-3-5.3
		c0-0.3,0.1-0.7,0.2-1c0,0,0.1,0,0.1,0l4.1,6.5c1.2,1.9,2.2,1.9,3.6,1.9c-1.2-0.9-2-2.1-2.4-2.7l-3.8-6.1c0.2-0.1,0.4-0.1,0.6-0.2
		l3.4,5.4c1.2,1.9,2.2,1.9,3.6,1.9c-1.2-0.9-2-2.1-2.4-2.7l-3.3-5.3c0.2-0.1,0.4-0.2,0.5-0.3l2.7,4.3c1.2,1.9,2.2,1.9,3.6,1.9
		c-1.2-0.9-2-2.1-2.4-2.7l-2.8-4.4c0.2-0.1,0.3-0.3,0.5-0.5l2,3.1c1.2,1.9,2.2,1.9,3.6,1.9c-1.2-0.9-2-2.1-2.4-2.7l-2.3-3.6
		c0.1-0.2,0.2-0.5,0.3-0.7L24.7,9.8z"/>
	<path d="M39.8,25.4h-4.2V1.5h4.2V25.4z"/>
	<path class="st0" d="M39.8,49.3h-4.2V25.4h4.2V49.3z"/>
	<path class="st1" d="M39.8,73.2h-4.2V49.3h4.2V73.2z"/>
</g>
</svg>
