<?xml version="1.0" encoding="utf-8"?>
<!-- Generator: Adobe Illustrator 27.1.1, SVG Export Plug-In . SVG Version: 6.00 Build 0)  -->
<svg version="1.1" id="Ebene_1" xmlns="http://www.w3.org/2000/svg" xmlns:xlink="http://www.w3.org/1999/xlink" x="0px" y="0px"
	 viewBox="0 0 192.5 56.9" style="enable-background:new 0 0 192.5 56.9;" xml:space="preserve">
<style type="text/css">
	.st0{fill:url(#SVGID_1_);}
	.st1{clip-path:url(#SVGID_00000025443714852448089850000017240427686992755114_);}
	.st2{fill:#00578D;}
	.st3{clip-path:url(#SVGID_00000091718179481810938290000009968013772182925985_);}
	.st4{fill:url(#SVGID_00000052793640373469162460000006690966581439927449_);}
	.st5{clip-path:url(#SVGID_00000015354492687558021910000000686325475807457417_);}
	.st6{fill:url(#SVGID_00000054238366330331503520000006415169146937154490_);}
	.st7{fill:url(#SVGID_00000084491606374012966620000013965366303230361518_);}
	.st8{fill:#575756;}
	.st9{display:none;}
	.st10{display:inline;fill:#312783;}
</style>
<g id="ZUG">
	
		<linearGradient id="SVGID_1_" gradientUnits="userSpaceOnUse" x1="9.5884" y1="40.9969" x2="76.2541" y2="40.9969" gradientTransform="matrix(1 0 0 -1 0 71.5314)">
		<stop  offset="0" style="stop-color:#00578D"/>
		<stop  offset="1" style="stop-color:#59C0EB"/>
	</linearGradient>
	<path class="st0" d="M48.8,56.8c-7.9,0-14.4-7.2-14.4-15.1l0-30.9c-0.1-0.8-0.7-1.8-2-1.8l-22.6,0C8.5,9.1,7.4,8,7.4,6.7
		c0-1.3,1.1-2.4,2.4-2.4l22.6,0c3.7,0,6.6,2.7,6.8,6.4l0,31.1c0,5.2,4.3,10.2,9.5,10.2c1.3,0,2.4,1.1,2.4,2.4
		C51.1,55.7,50.1,56.8,48.8,56.8z"/>
	<g>
		<g>
			<defs>
				<path id="SVGID_00000183961450867047816990000014835544780257349014_" d="M48.8,56.8c-7.9,0-14.4-7.2-14.4-15.1l0-30.9
					c-0.1-0.8-0.7-1.8-2-1.8l-22.6,0C8.5,9.1,7.4,8,7.4,6.7c0-1.3,1.1-2.4,2.4-2.4l22.6,0c3.7,0,6.6,2.7,6.8,6.4l0,31.1
					c0,5.2,4.3,10.2,9.5,10.2c1.3,0,2.4,1.1,2.4,2.4C51.1,55.7,50.1,56.8,48.8,56.8z"/>
			</defs>
			<clipPath id="SVGID_00000173135332637787881360000017329095170363569298_">
				<use xlink:href="#SVGID_00000183961450867047816990000014835544780257349014_"  style="overflow:visible;"/>
			</clipPath>
			<g style="clip-path:url(#SVGID_00000173135332637787881360000017329095170363569298_);">
				
					<image style="overflow:visible;opacity:0.65;enable-background:new    ;" width="88" height="88" xlink:href="4078F7B4961A5966.png"  transform="matrix(0.2479 0 0 0.2479 23.123 -1.8523)">
				</image>
				<g>
					
						<rect x="29.8" y="7.1" transform="matrix(0.7594 -0.6507 0.6507 0.7594 2.3105 24.3127)" class="st2" width="8.5" height="3.8"/>
				</g>
			</g>
		</g>
		<g>
			<defs>
				<path id="SVGID_00000036935411707343228180000002511620542905757580_" d="M48.8,56.8c-7.9,0-14.4-7.2-14.4-15.1l0-30.9
					c-0.1-0.8-0.7-1.8-2-1.8l-22.6,0C8.5,9.1,7.4,8,7.4,6.7c0-1.3,1.1-2.4,2.4-2.4l22.6,0c3.7,0,6.6,2.7,6.8,6.4l0,31.1
					c0,5.2,4.3,10.2,9.5,10.2c1.3,0,2.4,1.1,2.4,2.4C51.1,55.7,50.1,56.8,48.8,56.8z"/>
			</defs>
			<clipPath id="SVGID_00000011012592997278191810000003659018224144899748_">
				<use xlink:href="#SVGID_00000036935411707343228180000002511620542905757580_"  style="overflow:visible;"/>
			</clipPath>
			<g style="clip-path:url(#SVGID_00000011012592997278191810000003659018224144899748_);">
				
					<image style="overflow:visible;opacity:0.65;enable-background:new    ;" width="88" height="71" xlink:href="4078F7B4961A596A.png"  transform="matrix(0.2436 0 0 0.2436 25.7088 34.3335)">
				</image>
				<g>
					<rect x="32.1" y="41" class="st2" width="8.5" height="3.8"/>
				</g>
			</g>
		</g>
	</g>
	<g>
		
			<linearGradient id="SVGID_00000003102075367128953740000010799292311547937189_" gradientUnits="userSpaceOnUse" x1="0.255" y1="37.9814" x2="98.7316" y2="37.9814" gradientTransform="matrix(1 0 0 -1 0 71.5314)">
			<stop  offset="0" style="stop-color:#C8D400"/>
			<stop  offset="1" style="stop-color:#028C44"/>
		</linearGradient>
		<path style="fill:url(#SVGID_00000003102075367128953740000010799292311547937189_);" d="M7.6,45.5c-3.1,0-5.8-1.9-6.9-4.8
			c-1.1-2.9-0.2-6.1,2.2-8.1c1.1-0.9,2.6-0.7,3.5,0.3c0.9,1.1,0.7,2.6-0.3,3.5c-1.1,1-0.8,2.2-0.7,2.5c0.1,0.4,0.7,1.5,2.1,1.5h0
			l68.8-0.2c8,0,15.9-5.9,17.1-13.6l-16.9,0c-1.4,0-2.5-1.1-2.5-2.5s1.1-2.5,2.5-2.5l19.7,0c1.4,0,2.5,1.1,2.5,2.5
			c0,11.7-10.6,21.2-22.3,21.2H70L7.6,45.5C7.6,45.5,7.6,45.5,7.6,45.5z"/>
	</g>
	<g>
		<g>
			<defs>
				<path id="SVGID_00000021119641751246191950000005345366674560861591_" d="M7.6,45.5c-3.1,0-5.8-1.9-6.9-4.8
					c-1.1-2.9-0.2-6.1,2.2-8.1c1.1-0.9,2.6-0.7,3.5,0.3c0.9,1.1,0.7,2.6-0.3,3.5c-1.1,1-0.8,2.2-0.7,2.5c0.1,0.4,0.7,1.5,2.1,1.5h0
					l68.8-0.2c8,0,15.9-5.9,17.1-13.6l-16.9,0c-1.4,0-2.5-1.1-2.5-2.5s1.1-2.5,2.5-2.5l19.7,0c1.4,0,2.5,1.1,2.5,2.5
					c0,11.7-10.6,21.2-22.3,21.2H70L7.6,45.5C7.6,45.5,7.6,45.5,7.6,45.5z"/>
			</defs>
			<clipPath id="SVGID_00000121279951759010825090000006526065294206100360_">
				<use xlink:href="#SVGID_00000021119641751246191950000005345366674560861591_"  style="overflow:visible;"/>
			</clipPath>
			<g style="clip-path:url(#SVGID_00000121279951759010825090000006526065294206100360_);">
				
					<image style="overflow:visible;opacity:0.65;enable-background:new    ;" width="63" height="83" xlink:href="4078F7B4961A596D.png"  transform="matrix(0.2436 0 0 0.2436 52.9748 32.481)">
				</image>
				<g>
					<rect x="58.7" y="38.3" class="st2" width="3.8" height="8.5"/>
				</g>
			</g>
		</g>
	</g>
	<g>
		
			<linearGradient id="SVGID_00000085943841678023510130000012758424489252964992_" gradientUnits="userSpaceOnUse" x1="2.912" y1="53.3172" x2="43.7768" y2="53.3172" gradientTransform="matrix(1 0 0 -1 0 71.5314)">
			<stop  offset="0" style="stop-color:#C8D400"/>
			<stop  offset="1" style="stop-color:#028C44"/>
		</linearGradient>
		<path style="fill:url(#SVGID_00000085943841678023510130000012758424489252964992_);" d="M5.4,36.2c-0.7,0-1.4-0.3-1.9-0.9
			c-0.9-1.1-0.8-2.6,0.3-3.5L39.6,0.8c1.1-0.9,2.6-0.8,3.5,0.3c0.9,1.1,0.8,2.6-0.3,3.5L7.1,35.6C6.6,36,6,36.2,5.4,36.2z"/>
	</g>
	
		<linearGradient id="SVGID_00000117662613030304637510000016545339403117898880_" gradientUnits="userSpaceOnUse" x1="9.5886" y1="40.9968" x2="76.2538" y2="40.9968" gradientTransform="matrix(1 0 0 -1 0 71.5314)">
		<stop  offset="0" style="stop-color:#00578D"/>
		<stop  offset="1" style="stop-color:#59C0EB"/>
	</linearGradient>
	<path style="fill:url(#SVGID_00000117662613030304637510000016545339403117898880_);" d="M48.8,56.8c-1.3,0-2.4-1.1-2.4-2.4
		c0-1.3,1.1-2.4,2.4-2.4c5.2,0,9.5-4.9,9.5-9.9l0-19.3c0-10.2,8.4-18.4,19.1-18.6l3.3,0c1.4,0,2.4,1,2.4,2.4c0,1.3-1.1,2.4-2.4,2.4
		l-3.3,0c-8.2,0.2-14.3,6.1-14.3,13.8l0,19.3C63.1,49.7,56.5,56.8,48.8,56.8z"/>
</g>
<g id="Text">
	<g>
		<g>
			<path class="st8" d="M111,13.5l5.9,0v1.1l-7.5,0v-1l5.7-8.2l-5.6,0V4.2l7.2,0v1L111,13.5z"/>
			<path class="st8" d="M123.2,13.8c-0.5,0.6-1.3,0.9-2.3,0.9c-0.8,0-1.4-0.2-1.9-0.7c-0.4-0.5-0.6-1.2-0.7-2.1v-5l1.3,0v5
				c0,1.2,0.5,1.8,1.4,1.8c1,0,1.7-0.4,2-1.1V6.9l1.3,0v7.7h-1.3L123.2,13.8z"/>
			<path class="st8" d="M128.8,11l-0.8,0.9v2.7h-1.3V3.7l1.3,0v6.6l0.7-0.8l2.4-2.5l1.6,0l-3,3.2l3.3,4.5l-1.5,0L128.8,11z"/>
			<path class="st8" d="M138.9,13.8c-0.5,0.6-1.3,0.9-2.3,0.9c-0.8,0-1.4-0.2-1.9-0.7c-0.4-0.5-0.6-1.2-0.7-2.1v-5l1.3,0v5
				c0,1.2,0.5,1.8,1.4,1.8c1,0,1.7-0.4,2-1.1V6.9l1.3,0v7.7h-1.3L138.9,13.8z"/>
			<path class="st8" d="M143.6,6.9l0,1c0.6-0.7,1.4-1.1,2.3-1.1c1.6,0,2.5,0.9,2.5,2.7v5.1h-1.3V9.5c0-0.6-0.1-1-0.4-1.2
				c-0.2-0.3-0.6-0.4-1.2-0.4c-0.4,0-0.8,0.1-1.1,0.3c-0.3,0.2-0.6,0.5-0.8,0.9v5.5l-1.3,0V6.9L143.6,6.9L143.6,6.9z"/>
			<path class="st8" d="M151,14.6V7.9l-1.2,0v-1l1.2,0V6.1c0-0.8,0.2-1.5,0.7-1.9c0.4-0.5,1.1-0.7,1.9-0.7c0.3,0,0.6,0,0.9,0.1
				l-0.1,1.1c-0.2,0-0.5-0.1-0.7-0.1c-0.4,0-0.8,0.1-1,0.4c-0.2,0.3-0.3,0.6-0.3,1.1v0.8l1.6,0v1l-1.6,0l0,6.7L151,14.6z"/>
			<path class="st8" d="M157.7,5v1.9l1.4,0v1l-1.4,0v4.8c0,0.3,0.1,0.5,0.2,0.7c0.1,0.2,0.3,0.2,0.7,0.2c0.2,0,0.4,0,0.6-0.1v1.1
				c-0.3,0.1-0.7,0.1-1,0.1c-0.6,0-1-0.2-1.3-0.5c-0.3-0.4-0.4-0.9-0.4-1.5V7.9H155v-1h1.4V5L157.7,5L157.7,5z"/>
			<path class="st8" d="M117.2,19.6v7c0,1-0.3,1.8-0.9,2.4c-0.6,0.6-1.4,1-2.5,1l-0.4,0c-1.1,0-2-0.3-2.7-0.9c-0.7-0.6-1-1.5-1-2.5
				v-7.1h1.4v7c0,0.8,0.2,1.3,0.6,1.7c0.4,0.4,1,0.6,1.8,0.6c0.8,0,1.4-0.2,1.8-0.6c0.4-0.4,0.6-1,0.6-1.7v-7L117.2,19.6L117.2,19.6
				z"/>
			<path class="st8" d="M121.1,22.3l0,0.9c0.6-0.7,1.3-1,2.3-1c1.1,0,1.8,0.4,2.2,1.2c0.3-0.4,0.6-0.7,1-0.9
				c0.4-0.2,0.9-0.3,1.5-0.3c1.7,0,2.5,0.9,2.6,2.7l0,5.2h-1.3v-5.1c0-0.6-0.1-1-0.4-1.2c-0.3-0.3-0.7-0.4-1.3-0.4
				c-0.5,0-0.9,0.1-1.2,0.4c-0.3,0.3-0.5,0.7-0.6,1.2V30l-1.3,0v-5c0-1.1-0.5-1.7-1.6-1.7c-0.9,0-1.5,0.4-1.8,1.1V30h-1.3v-7.7
				L121.1,22.3L121.1,22.3z"/>
			<path class="st8" d="M139.8,28.2l1.5-5.9h1.3l-2.2,7.7h-1.1l-1.9-5.8l-1.8,5.8h-1.1l-2.2-7.7h1.3l1.5,5.8l1.8-5.8h1.1L139.8,28.2
				z"/>
			<path class="st8" d="M147.5,30.1c-1,0-1.9-0.3-2.5-1c-0.7-0.7-1-1.6-1-2.7v-0.2c0-0.8,0.1-1.4,0.4-2s0.7-1.1,1.2-1.4
				c0.5-0.3,1.1-0.5,1.7-0.5c1,0,1.8,0.3,2.3,1c0.6,0.7,0.8,1.6,0.8,2.8v0.5l-5.2,0c0,0.8,0.2,1.4,0.7,1.8c0.4,0.5,1,0.7,1.6,0.7
				c0.5,0,0.9-0.1,1.2-0.3c0.3-0.2,0.6-0.4,0.8-0.8l0.8,0.6C149.7,29.6,148.8,30.1,147.5,30.1z M147.3,23.2c-0.5,0-1,0.2-1.3,0.6
				c-0.4,0.4-0.6,0.9-0.7,1.6l3.9,0v-0.1c0-0.7-0.2-1.2-0.5-1.6C148.3,23.4,147.9,23.2,147.3,23.2z"/>
			<path class="st8" d="M154,30h-1.3V19h1.3V30z"/>
			<path class="st8" d="M158.6,20.4v1.9h1.4v1h-1.4v4.8c0,0.3,0.1,0.5,0.2,0.7c0.1,0.2,0.3,0.2,0.7,0.2c0.2,0,0.4,0,0.6-0.1V30
				c-0.3,0.1-0.7,0.1-1,0.1c-0.6,0-1-0.2-1.3-0.5c-0.3-0.4-0.4-0.9-0.4-1.5v-4.8h-1.4v-1h1.4v-1.9L158.6,20.4L158.6,20.4z"/>
			<path class="st8" d="M117.6,44c-0.4,0.5-0.8,0.9-1.5,1.1c-0.6,0.2-1.4,0.4-2.2,0.4c-0.8,0-1.6-0.2-2.3-0.6s-1.2-1-1.5-1.7
				c-0.4-0.7-0.5-1.6-0.6-2.5v-0.9c0-1.6,0.4-2.8,1.1-3.6c0.7-0.9,1.8-1.3,3.1-1.3c1.1,0,2,0.3,2.6,0.8c0.7,0.6,1.1,1.3,1.2,2.4
				h-1.4c-0.3-1.4-1.1-2.1-2.5-2.1c-0.9,0-1.6,0.3-2.1,1c-0.5,0.6-0.7,1.6-0.7,2.8v0.8c0,1.2,0.3,2.1,0.8,2.8c0.5,0.7,1.3,1,2.2,1
				c0.5,0,1-0.1,1.3-0.2c0.4-0.1,0.7-0.3,1-0.6v-2.3h-2.4v-1.1l3.8,0L117.6,44L117.6,44z"/>
			<path class="st8" d="M123.2,45.5c-1,0-1.9-0.3-2.5-1c-0.7-0.7-1-1.6-1-2.7v-0.2c0-0.8,0.1-1.4,0.4-2c0.3-0.6,0.7-1.1,1.2-1.4
				c0.5-0.3,1.1-0.5,1.7-0.5c1,0,1.8,0.3,2.3,1s0.8,1.6,0.8,2.8v0.5h-5.2c0,0.8,0.2,1.4,0.7,1.8c0.4,0.5,1,0.7,1.6,0.7
				c0.5,0,0.9-0.1,1.2-0.3c0.3-0.2,0.6-0.4,0.8-0.8L126,44C125.4,45,124.4,45.5,123.2,45.5z M123,38.6c-0.5,0-1,0.2-1.3,0.6
				c-0.4,0.4-0.6,0.9-0.7,1.6h3.9v-0.1c0-0.7-0.2-1.2-0.5-1.6C124,38.8,123.5,38.6,123,38.6z"/>
			<path class="st8" d="M132.4,43.3c0-0.4-0.1-0.6-0.4-0.8s-0.7-0.4-1.4-0.5c-0.7-0.1-1.2-0.3-1.6-0.5s-0.7-0.4-0.9-0.7
				c-0.2-0.3-0.3-0.6-0.3-1c0-0.6,0.3-1.2,0.8-1.6c0.5-0.4,1.2-0.7,2-0.7c0.9,0,1.6,0.2,2.1,0.7c0.5,0.5,0.8,1,0.8,1.7h-1.3
				c0-0.4-0.2-0.7-0.5-0.9c-0.3-0.3-0.7-0.4-1.2-0.4c-0.5,0-0.9,0.1-1.1,0.3c-0.3,0.2-0.4,0.5-0.4,0.8c0,0.3,0.1,0.6,0.4,0.7
				s0.7,0.3,1.4,0.5c0.7,0.1,1.2,0.3,1.6,0.5c0.4,0.2,0.7,0.5,0.9,0.7c0.2,0.3,0.3,0.6,0.3,1.1c0,0.7-0.3,1.2-0.8,1.7
				c-0.6,0.4-1.3,0.6-2.1,0.6c-0.6,0-1.2-0.1-1.6-0.3c-0.5-0.2-0.8-0.5-1.1-0.9c-0.3-0.4-0.4-0.8-0.4-1.3h1.3c0,0.4,0.2,0.8,0.5,1.1
				c0.3,0.3,0.8,0.4,1.3,0.4c0.5,0,0.9-0.1,1.2-0.3C132.2,43.9,132.4,43.6,132.4,43.3z"/>
			<path class="st8" d="M138.8,45.5c-1,0-1.9-0.3-2.5-1c-0.7-0.7-1-1.6-1-2.7v-0.2c0-0.8,0.1-1.4,0.4-2c0.3-0.6,0.7-1.1,1.2-1.4
				s1.1-0.5,1.7-0.5c1,0,1.8,0.3,2.3,1c0.6,0.7,0.8,1.6,0.8,2.8v0.5h-5.2c0,0.8,0.2,1.4,0.7,1.8c0.4,0.5,1,0.7,1.6,0.7
				c0.5,0,0.9-0.1,1.2-0.3c0.3-0.2,0.6-0.4,0.8-0.8l0.8,0.6C141.1,45,140.1,45.5,138.8,45.5z M138.6,38.6c-0.5,0-1,0.2-1.3,0.6
				c-0.4,0.4-0.6,0.9-0.7,1.6h3.9v-0.1c0-0.7-0.2-1.2-0.5-1.6C139.6,38.8,139.2,38.6,138.6,38.6z"/>
			<path class="st8" d="M145.1,45.3h-1.3l0-10.9h1.3V45.3z"/>
			<path class="st8" d="M148.8,45.3h-1.3V34.4h1.3V45.3z"/>
			<path class="st8" d="M155.5,43.3c0-0.4-0.1-0.6-0.4-0.8c-0.3-0.2-0.7-0.4-1.4-0.5c-0.7-0.1-1.2-0.3-1.6-0.5
				c-0.4-0.2-0.7-0.4-0.9-0.7s-0.3-0.6-0.3-1c0-0.6,0.3-1.2,0.8-1.6s1.2-0.7,2-0.7c0.9,0,1.6,0.2,2.1,0.7c0.5,0.5,0.8,1,0.8,1.7
				h-1.3c0-0.4-0.2-0.7-0.5-0.9c-0.3-0.3-0.7-0.4-1.2-0.4c-0.5,0-0.9,0.1-1.1,0.3c-0.3,0.2-0.4,0.5-0.4,0.8c0,0.3,0.1,0.6,0.4,0.7
				c0.3,0.2,0.7,0.3,1.4,0.5c0.7,0.1,1.2,0.3,1.6,0.5s0.7,0.5,0.9,0.7c0.2,0.3,0.3,0.6,0.3,1.1c0,0.7-0.3,1.2-0.8,1.7
				c-0.6,0.4-1.3,0.6-2.1,0.6c-0.6,0-1.2-0.1-1.6-0.3c-0.5-0.2-0.8-0.5-1.1-0.9s-0.4-0.8-0.4-1.3h1.3c0,0.4,0.2,0.8,0.5,1.1
				c0.3,0.3,0.8,0.4,1.3,0.4c0.5,0,0.9-0.1,1.2-0.3C155.4,43.9,155.5,43.6,155.5,43.3z"/>
			<path class="st8" d="M161.9,44.4c0.5,0,0.9-0.1,1.2-0.4c0.4-0.3,0.5-0.6,0.6-1.1h1.2c0,0.4-0.2,0.9-0.5,1.3s-0.7,0.7-1.1,1
				s-1,0.4-1.5,0.4c-1.1,0-1.9-0.3-2.5-1.1c-0.6-0.7-0.9-1.7-0.9-2.9v-0.2c0-0.8,0.1-1.4,0.4-2c0.3-0.6,0.7-1,1.2-1.4
				c0.5-0.3,1.1-0.5,1.8-0.5c0.9,0,1.6,0.3,2.2,0.8s0.9,1.2,0.9,2l-1.2,0c0-0.5-0.2-0.9-0.6-1.2c-0.3-0.3-0.8-0.5-1.3-0.5
				c-0.7,0-1.2,0.2-1.6,0.7c-0.4,0.5-0.6,1.2-0.6,2.1v0.2c0,0.9,0.2,1.6,0.5,2.1C160.7,44.2,161.2,44.4,161.9,44.4z"/>
			<path class="st8" d="M168.1,38.6c0.6-0.7,1.3-1.1,2.3-1.1c1.6,0,2.5,0.9,2.5,2.7v5.1h-1.3v-5.1c0-0.6-0.1-1-0.4-1.2
				c-0.2-0.3-0.6-0.4-1.2-0.4c-0.4,0-0.8,0.1-1.1,0.3c-0.3,0.2-0.6,0.5-0.8,0.9v5.5h-1.3V34.4h1.3L168.1,38.6L168.1,38.6z"/>
			<path class="st8" d="M179.7,45.3c-0.1-0.2-0.1-0.4-0.2-0.8c-0.6,0.6-1.3,1-2.2,1c-0.8,0-1.4-0.2-1.9-0.6c-0.5-0.4-0.7-1-0.7-1.6
				c0-0.8,0.3-1.4,0.9-1.9c0.6-0.4,1.5-0.7,2.6-0.7h1.3v-0.6c0-0.5-0.1-0.8-0.4-1.1c-0.3-0.3-0.7-0.4-1.2-0.4
				c-0.5,0-0.9,0.1-1.2,0.4c-0.3,0.2-0.5,0.5-0.5,0.9l-1.3,0c0-0.4,0.1-0.8,0.4-1.1s0.6-0.6,1.1-0.9s1-0.3,1.5-0.3
				c0.9,0,1.6,0.2,2.1,0.7c0.5,0.4,0.8,1.1,0.8,1.8v3.5c0,0.7,0.1,1.3,0.3,1.7v0.1C181.1,45.3,179.7,45.3,179.7,45.3z M177.5,44.3
				c0.4,0,0.8-0.1,1.2-0.3c0.4-0.2,0.6-0.5,0.8-0.8v-1.6h-1c-1.6,0-2.4,0.5-2.4,1.4c0,0.4,0.1,0.7,0.4,1
				C176.8,44.2,177.1,44.3,177.5,44.3z"/>
			<path class="st8" d="M183.6,45.3v-6.7h-1.2v-1h1.2v-0.8c0-0.8,0.2-1.5,0.7-1.9c0.4-0.5,1.1-0.7,1.9-0.7c0.3,0,0.6,0,0.9,0.1
				l-0.1,1.1c-0.2,0-0.5-0.1-0.7-0.1c-0.4,0-0.8,0.1-1,0.4s-0.3,0.6-0.3,1.1v0.8h1.6v1H185v6.7H183.6z"/>
			<path class="st8" d="M190.5,35.8v1.9l1.4,0v1h-1.4v4.8c0,0.3,0.1,0.5,0.2,0.7c0.1,0.2,0.3,0.2,0.7,0.2c0.2,0,0.4,0,0.6-0.1v1.1
				c-0.3,0.1-0.7,0.1-1,0.1c-0.6,0-1-0.2-1.3-0.5c-0.3-0.4-0.4-0.9-0.4-1.5v-4.8h-1.4v-1h1.4v-1.9L190.5,35.8L190.5,35.8z"/>
		</g>
	</g>
</g>
<g id="Schutzzone" class="st9">
	<rect x="66.3" y="29.4" class="st10" width="9.9" height="9.9"/>
	<rect x="-0.3" y="37.8" class="st10" width="9.9" height="9.9"/>
	<rect x="98.5" y="30.8" class="st10" width="9.9" height="9.9"/>
	<rect x="182.6" y="40.5" class="st10" width="9.9" height="9.9"/>
	<rect x="42.7" y="-0.2" class="st10" width="9.9" height="9.9"/>
	<rect x="48.8" y="60.7" class="st10" width="9.9" height="9.9"/>
</g>
</svg>
